<svg width="18" height="18" viewBox="0 0 18 18" fill="none" xmlns="http://www.w3.org/2000/svg">
<path d="M17.6372 2.40391C17.4191 1.88676 17.0893 1.42422 16.6715 1.04943C16.2538 0.674636 15.7583 0.396858 15.2206 0.235986C14.5102 0.0584515 13.7785 -0.018592 13.0468 0.00710651H4.95324C4.22152 -0.018585 3.48981 0.0584657 2.77949 0.236008C2.24177 0.396879 1.74628 0.674657 1.3285 1.04945C0.910715 1.42424 0.58097 1.88678 0.36288 2.40394C0.0888577 3.22465 -0.0317411 4.0888 0.00711229 4.95318V13.0468C-0.0317438 13.9112 0.0888551 14.7753 0.36288 15.5961C0.58097 16.1132 0.910715 16.5758 1.3285 16.9506C1.74628 17.3253 2.24177 17.6031 2.77949 17.764C3.48981 17.9415 4.22152 18.0186 4.95324 17.9929H13.0468C13.7785 18.0186 14.5102 17.9415 15.2206 17.764C15.7583 17.6031 16.2538 17.3253 16.6715 16.9506C17.0893 16.5758 17.4191 16.1132 17.6372 15.5961C17.9112 14.7753 18.0318 13.9112 17.9929 13.0468V4.95318C18.0318 4.0888 17.9112 3.22464 17.6372 2.40391ZM13.1278 12.3775C13.0831 12.5988 12.994 12.8087 12.8658 12.9946C12.7364 13.1799 12.5686 13.3352 12.3737 13.4497C12.1799 13.5604 11.9686 13.6372 11.749 13.6768C11.4341 13.7585 11.106 13.7752 10.7845 13.7257C10.542 13.6776 10.3174 13.5636 10.1355 13.3961C9.99628 13.2706 9.88369 13.1183 9.80448 12.9484C9.72526 12.7784 9.68103 12.5943 9.67442 12.4069C9.6678 12.2195 9.69894 12.0327 9.76597 11.8576C9.83301 11.6825 9.93458 11.5227 10.0646 11.3876C10.2285 11.2204 10.4279 11.0922 10.6481 11.0126C10.9703 10.9017 11.3013 10.8179 11.6374 10.7622C11.7537 10.7388 11.8701 10.7153 11.9864 10.6918C12.1367 10.6764 12.2758 10.6053 12.3764 10.4926C12.4648 10.3626 12.5032 10.2052 12.4847 10.0491L12.4848 6.08551C12.4848 5.78238 12.3489 5.69978 12.0594 5.75539C11.8525 5.79576 7.40891 6.69193 7.40891 6.69193C7.35505 6.69497 7.3025 6.70977 7.25497 6.73529C7.20745 6.76081 7.16608 6.79643 7.1338 6.83965C7.10151 6.88287 7.07908 6.93264 7.06809 6.98546C7.0571 7.03828 7.05781 7.09286 7.07018 7.14537L7.07028 12.9531C7.07414 13.1739 7.05409 13.3944 7.01046 13.6109C6.96577 13.8322 6.87662 14.0422 6.74842 14.228C6.6191 14.4134 6.45124 14.5686 6.25634 14.683C6.06271 14.7948 5.85144 14.8727 5.63162 14.9135C5.3168 14.9953 4.9886 15.0119 4.66713 14.9624C4.42434 14.9132 4.1998 14.798 4.01818 14.6296C3.74295 14.3723 3.58094 14.0165 3.56766 13.64C3.55437 13.2635 3.69091 12.8971 3.94733 12.6211C4.11117 12.4538 4.31059 12.3256 4.53077 12.246C4.85298 12.1351 5.18391 12.0514 5.5201 11.9957C5.6364 11.9722 5.75273 11.9487 5.8691 11.9253C6.01938 11.9098 6.15847 11.8387 6.25908 11.726C6.34985 11.5981 6.3917 11.4418 6.37702 11.2857V4.59721C6.37654 4.53689 6.38069 4.47662 6.38943 4.41694C6.40427 4.28294 6.46837 4.15924 6.56929 4.06984C6.66625 3.99304 6.78079 3.94154 6.9026 3.91999L6.90465 3.91958L12.2504 2.84105C12.2967 2.8316 12.6831 2.76302 12.7265 2.75922C12.7896 2.75124 12.8536 2.75817 12.9135 2.77945C12.9734 2.80073 13.0275 2.83577 13.0714 2.88174C13.1152 2.92772 13.1477 2.98335 13.1662 3.04417C13.1847 3.10499 13.1886 3.16929 13.1777 3.23191L13.178 11.7166C13.1851 11.9381 13.1683 12.1597 13.1278 12.3775Z" fill="#FAFAFA"/>
</svg>
