<svg width="28" height="28" viewBox="0 0 28 28" fill="none" xmlns="http://www.w3.org/2000/svg">
<path d="M7.58325 20.4166L16.3333 16.3333L20.4166 7.58331L11.6666 11.6666L7.58325 20.4166ZM13.9999 15.1666C13.6694 15.1666 13.3921 15.0546 13.1681 14.8306C12.9441 14.6066 12.8325 14.3298 12.8333 14C12.8333 13.6694 12.9453 13.3921 13.1693 13.1681C13.3933 12.9441 13.6701 12.8325 13.9999 12.8333C14.3305 12.8333 14.6078 12.9453 14.8318 13.1693C15.0558 13.3933 15.1674 13.6702 15.1666 14C15.1666 14.3305 15.0546 14.6078 14.8306 14.8318C14.6066 15.0558 14.3297 15.1674 13.9999 15.1666ZM13.9999 25.6666C12.386 25.6666 10.8694 25.3602 9.44992 24.7473C8.03047 24.1344 6.79575 23.3034 5.74575 22.2541C4.69575 21.2041 3.8647 19.9694 3.25259 18.55C2.64047 17.1305 2.33403 15.6139 2.33325 14C2.33325 12.3861 2.6397 10.8694 3.25259 9.44998C3.86547 8.03054 4.69653 6.79581 5.74575 5.74581C6.79575 4.69581 8.03047 3.86476 9.44992 3.25265C10.8694 2.64054 12.386 2.33409 13.9999 2.33331C15.6138 2.33331 17.1305 2.63976 18.5499 3.25265C19.9694 3.86554 21.2041 4.69659 22.2541 5.74581C23.3041 6.79581 24.1355 8.03054 24.7484 9.44998C25.3613 10.8694 25.6674 12.3861 25.6666 14C25.6666 15.6139 25.3601 17.1305 24.7473 18.55C24.1344 19.9694 23.3033 21.2041 22.2541 22.2541C21.2041 23.3041 19.9694 24.1356 18.5499 24.7485C17.1305 25.3614 15.6138 25.6674 13.9999 25.6666ZM13.9999 23.3333C16.6055 23.3333 18.8124 22.4291 20.6208 20.6208C22.4291 18.8125 23.3333 16.6055 23.3333 14C23.3333 11.3944 22.4291 9.18748 20.6208 7.37915C18.8124 5.57081 16.6055 4.66665 13.9999 4.66665C11.3944 4.66665 9.18742 5.57081 7.37909 7.37915C5.57075 9.18748 4.66659 11.3944 4.66659 14C4.66659 16.6055 5.57075 18.8125 7.37909 20.6208C9.18742 22.4291 11.3944 23.3333 13.9999 23.3333Z" fill="#1A1C20"/>
</svg>
