<svg width="268" height="274" viewBox="0 0 268 274" fill="none" xmlns="http://www.w3.org/2000/svg">
<path d="M69.3381 44.9677C68.5471 76.8729 65.9821 186.928 67.2066 225.927C67.268 227.917 68.0852 229.809 69.4921 231.218C70.899 232.627 72.7897 233.447 74.7797 233.511C95.2145 234.18 153.999 235.874 187.423 234.471C194.385 234.175 199.921 228.54 200.066 221.573C200.76 188.084 202.292 93.8926 198.65 50.7431C198.438 48.2386 197.357 45.8871 195.593 44.0967C193.829 42.3063 191.494 41.1898 188.993 40.9412C166.738 38.7152 107.632 33.2729 78.7553 35.1473C76.2429 35.3129 73.8834 36.4125 72.1407 38.2298C70.398 40.0471 69.3983 42.4506 69.3381 44.9677Z" fill="url(#paint0_linear_272_704)"/>
<path d="M77.6413 54.882C76.5246 81.0124 73.0047 167.942 74.1221 200.086C74.1983 202.353 75.1184 204.509 76.7019 206.132C78.2854 207.755 80.4181 208.728 82.6818 208.86C102.005 209.991 151.567 212.484 179.91 210.215C182.378 210.015 184.689 208.927 186.414 207.153C188.14 205.379 189.164 203.038 189.294 200.567C190.731 173.905 194.854 92.9643 193.783 61.1796C193.701 58.7294 192.725 56.394 191.04 54.6134C189.355 52.8328 187.077 51.73 184.635 51.5127C163.73 49.6354 110.042 45.1701 85.9543 46.484C83.7728 46.6002 81.7127 47.5247 80.1758 49.0774C78.6388 50.63 77.7353 52.6994 77.6413 54.882Z" fill="#91B3FA"/>
<path d="M119.84 40.7218C119.839 41.1929 120.019 41.6463 120.343 41.9883C120.667 42.3302 121.11 42.5347 121.581 42.5593C126.407 42.8126 140.004 43.5275 146.08 43.8798C146.359 43.8961 146.639 43.8482 146.897 43.7399C147.156 43.6316 147.386 43.4657 147.57 43.2549C147.754 43.044 147.888 42.7938 147.961 42.5234C148.034 42.253 148.044 41.9694 147.991 41.6945L147.953 41.4928C147.877 41.1015 147.677 40.7452 147.382 40.4776C147.086 40.21 146.712 40.0456 146.315 40.0091C142.207 39.6324 129.814 38.5889 121.602 38.8821C121.127 38.9012 120.679 39.1035 120.35 39.4466C120.021 39.7897 119.839 40.2467 119.84 40.7218Z" fill="#7D97F4"/>
<path d="M170.634 102.727C170.294 103.863 168.947 104.463 167.624 104.068C166.301 103.673 165.505 102.43 165.845 101.294C166.185 100.158 167.533 99.5572 168.855 99.9523C170.178 100.347 170.972 101.59 170.634 102.727Z" fill="white"/>
<path d="M175.943 91.3993C174.814 90.1016 174.88 89.0994 173.88 88.6142C172.879 88.129 172.449 90.0433 172.449 90.0433L168.954 101.724C168.827 102.148 169.225 102.641 169.649 102.768C170.073 102.895 170.433 103.127 170.559 102.703L173.948 91.6208C176.692 92.9893 177.145 97.0528 177.145 97.0528C178.001 95.1112 176.949 92.5551 175.943 91.3993Z" fill="white"/>
<path d="M138.115 121.279C138.531 122.151 138.045 123.251 137.031 123.734C136.017 124.218 134.857 123.904 134.441 123.032C134.026 122.16 134.511 121.061 135.525 120.577C136.539 120.093 137.699 120.408 138.115 121.279Z" fill="white"/>
<path d="M135.128 111.54C133.738 111.374 133.323 110.689 132.454 110.943C131.585 111.197 132.462 112.544 132.462 112.544L136.738 121.505C136.893 121.831 137.309 121.956 137.634 121.801C137.959 121.646 138.257 121.611 138.102 121.284L134.067 112.753C136.471 112.079 138.953 114.29 138.953 114.29C138.411 112.651 136.368 111.689 135.128 111.54Z" fill="white"/>
<path d="M86.8429 107.855C86.7561 107.808 86.6796 107.743 86.6179 107.666C86.5561 107.589 86.5104 107.5 86.4834 107.405C86.4564 107.31 86.4486 107.211 86.4605 107.113C86.4724 107.015 86.5037 106.92 86.5527 106.834L92.0386 96.6208C92.0845 96.5353 92.1468 96.4596 92.2219 96.3982C92.2971 96.3368 92.3836 96.2908 92.4765 96.2628C92.5694 96.2349 92.667 96.2254 92.7635 96.2352C92.8601 96.2449 92.9538 96.2735 93.0393 96.3194C93.1248 96.3654 93.2004 96.4277 93.2618 96.5028C93.3232 96.5779 93.3692 96.6645 93.3972 96.7574C93.4252 96.8503 93.4346 96.9478 93.4249 97.0444C93.4152 97.141 93.3865 97.2347 93.3406 97.3202L87.6538 107.904C87.4566 108.274 87.2137 108.053 86.8429 107.855Z" fill="white"/>
<path d="M87.7881 108.014C87.2541 109.007 85.8619 109.297 84.678 108.661C83.4942 108.025 82.9676 106.705 83.5015 105.707C84.0355 104.709 85.4277 104.423 86.6108 105.059C87.794 105.695 88.322 107.019 87.7881 108.014Z" fill="white"/>
<path d="M97.0028 111.583C96.916 111.536 96.8394 111.472 96.7776 111.395C96.7158 111.318 96.6701 111.229 96.643 111.134C96.616 111.039 96.6082 110.939 96.6202 110.841C96.6321 110.743 96.6635 110.648 96.7126 110.562L102.199 100.349C102.244 100.264 102.307 100.188 102.382 100.126C102.457 100.065 102.544 100.019 102.636 99.9911C102.729 99.9631 102.827 99.9537 102.923 99.9634C103.02 99.9731 103.114 100.002 103.199 100.048C103.285 100.094 103.36 100.156 103.422 100.231C103.483 100.306 103.529 100.393 103.557 100.486C103.585 100.579 103.595 100.676 103.585 100.773C103.575 100.869 103.546 100.963 103.501 101.048L97.8138 111.632C97.6166 112.003 97.3736 111.782 97.0028 111.583Z" fill="white"/>
<path d="M97.7529 111.637C97.2197 112.63 95.8276 112.92 94.6437 112.285C93.4598 111.649 92.9332 110.328 93.4664 109.334C93.9997 108.34 95.3926 108.051 96.5764 108.686C97.7603 109.322 98.2869 110.644 97.7529 111.637Z" fill="white"/>
<path d="M91.041 100.04L102.299 103.289L103.709 100.664C103.758 100.562 103.785 100.45 103.787 100.337C103.789 100.224 103.767 100.111 103.721 100.007C103.686 99.9078 103.628 99.8182 103.553 99.7453C103.477 99.6723 103.385 99.618 103.285 99.5868L93.0499 96.3032L91.041 100.04Z" fill="white"/>
<path d="M128.231 81.5715C128.165 81.6089 128.091 81.6327 128.016 81.6414C127.94 81.6501 127.863 81.6436 127.79 81.6223C127.717 81.601 127.648 81.5653 127.589 81.5172C127.53 81.4692 127.481 81.4098 127.445 81.3425L123.022 73.5738C122.982 73.5086 122.956 73.4362 122.945 73.3608C122.934 73.2853 122.938 73.2084 122.957 73.1346C122.976 73.0608 123.01 72.9915 123.056 72.931C123.103 72.8704 123.161 72.8198 123.227 72.782C123.293 72.7443 123.366 72.7202 123.442 72.7112C123.518 72.7023 123.594 72.7086 123.668 72.7298C123.741 72.751 123.809 72.7867 123.868 72.8347C123.928 72.8828 123.977 72.9422 124.012 73.0095L128.596 81.0597C128.756 81.3425 128.512 81.4105 128.231 81.5715Z" fill="white"/>
<path d="M128.721 81.0183C129.152 81.7738 128.771 82.8026 127.871 83.3152C126.97 83.8277 125.891 83.6305 125.461 82.872C125.03 82.1136 125.412 81.0885 126.312 80.5759C127.213 80.0634 128.292 80.2635 128.721 81.0183Z" fill="white"/>
<path d="M134.83 76.4629C134.763 76.5003 134.69 76.524 134.614 76.5328C134.539 76.5415 134.462 76.535 134.389 76.5138C134.316 76.4925 134.247 76.4569 134.188 76.409C134.129 76.3611 134.08 76.3018 134.044 76.2347L129.621 68.463C129.581 68.3978 129.554 68.3252 129.542 68.2494C129.531 68.1736 129.534 68.0962 129.553 68.0218C129.572 67.9475 129.606 67.8777 129.652 67.8167C129.699 67.7557 129.757 67.7047 129.824 67.6668C129.891 67.6288 129.964 67.6047 130.04 67.5959C130.117 67.5871 130.194 67.5938 130.267 67.6155C130.341 67.6372 130.409 67.6736 130.469 67.7224C130.528 67.7712 130.576 67.8314 130.612 67.8995L135.195 75.9496C135.355 76.2347 135.112 76.3027 134.83 76.4629Z" fill="white"/>
<path d="M135.172 75.9962C135.602 76.7517 135.221 77.7798 134.321 78.2923C133.421 78.8049 132.342 78.6077 131.912 77.8492C131.482 77.0907 131.862 76.0649 132.763 75.5523C133.663 75.0398 134.742 75.2392 135.172 75.9962Z" fill="white"/>
<path d="M124.846 75.6269L131.58 69.6034L130.444 67.6093C130.397 67.5352 130.335 67.4721 130.262 67.4243C130.189 67.3764 130.106 67.3451 130.02 67.3323C129.941 67.3142 129.858 67.315 129.779 67.3347C129.701 67.3543 129.628 67.3922 129.566 67.4453L123.227 72.7843L124.846 75.6269Z" fill="white"/>
<path d="M58.3478 135.95C56.7193 30.8844 202.995 30.6355 206.849 143.573L211.127 142.901C222.153 37.2418 50.9971 10.7746 50.9971 139.01L58.3478 135.95Z" fill="url(#paint1_linear_272_704)"/>
<path d="M231.346 155.018C233.376 130.177 229.463 109.585 222.608 109.025C215.753 108.465 208.55 128.149 206.521 152.99C204.492 177.832 208.404 198.424 215.259 198.984C222.115 199.544 229.317 179.86 231.346 155.018Z" fill="url(#paint2_linear_272_704)"/>
<path d="M220.131 108.825C213.973 104.633 208.923 104.933 200.684 107.237C189.631 138.539 191.099 168.807 198.217 198.608C204.72 201.574 211.061 203.973 215.263 198.988C211.674 167.859 210.593 137.472 220.131 108.825Z" fill="url(#paint3_linear_272_704)"/>
<path d="M50.664 198.452C57.3401 197.575 60.1771 177.254 57.0005 153.063C53.8239 128.872 45.8367 109.972 39.1605 110.848C32.4844 111.725 29.6474 132.046 32.824 156.237C36.0006 180.428 43.9878 199.328 50.664 198.452Z" fill="url(#paint4_linear_272_704)"/>
<path d="M41.457 110.831C47.2915 106.443 52.2538 106.504 60.428 108.381C72.6879 138.528 72.6436 168.237 67.0424 197.745C60.8091 200.948 54.7087 203.589 50.3661 198.9C52.4503 168.254 52.1128 138.446 41.457 110.831Z" fill="url(#paint5_linear_272_704)"/>
<path d="M76.0616 73.9726L77.4545 75.6461C78.9508 77.443 81.419 77.9164 83.4005 76.7679C115.74 58.0259 147.316 59.2822 178.189 79.0146C180.425 80.4437 183.325 79.7221 184.749 77.3979L185.3 76.4984C186.768 74.104 186.13 70.8965 183.877 69.3389C149.543 45.5883 114.038 44.4793 77.3614 66.0118C74.6325 67.6159 73.9937 71.491 76.0616 73.9726Z" fill="url(#paint6_linear_272_704)"/>
<path d="M163.7 238.563C163.698 238.502 163.704 238.441 163.718 238.381C164.622 234.799 168.317 232.962 168.317 232.962L170.095 233.102C171.116 236.26 171.776 237.801 171.611 238.664C171.606 238.688 171.599 238.711 171.592 238.737C170.126 238.865 167.109 238.951 163.7 238.563Z" fill="url(#paint7_linear_272_704)"/>
<path d="M171.592 238.734C171.56 238.872 171.49 238.998 171.39 239.098C171.291 239.199 171.166 239.27 171.029 239.304C168.943 239.743 165.628 239.39 164.234 239.208C163.927 239.167 163.702 238.884 163.697 238.563C167.109 238.951 170.126 238.865 171.592 238.734Z" fill="url(#paint8_linear_272_704)"/>
<path d="M166.853 230.196L167.631 233.943C167.653 234.072 167.716 234.19 167.81 234.281C167.905 234.371 168.025 234.43 168.155 234.446C168.556 234.487 168.961 234.481 169.36 234.427C169.762 234.368 170.041 233.961 169.97 233.523L169.43 230.199L166.853 230.196Z" fill="url(#paint9_linear_272_704)"/>
<path d="M186.695 238.703C184.797 238.65 183.815 238.427 183.307 238.219C183.307 238.408 183.307 238.6 183.313 238.799C183.311 238.896 183.348 238.991 183.414 239.062C183.481 239.133 183.573 239.175 183.67 239.18L194.094 239.113C194.426 239.113 194.62 238.725 194.476 238.42C193.11 238.533 189.629 238.785 186.695 238.703Z" fill="url(#paint10_linear_272_704)"/>
<path d="M194.476 238.42C194.465 238.392 194.451 238.366 194.435 238.341C193.515 237.055 191.17 234.494 186.538 233.383L184.315 233.313C184.315 233.313 183.326 235.033 183.307 238.219C183.815 238.426 184.797 238.65 186.695 238.703C189.629 238.785 193.11 238.533 194.476 238.42Z" fill="url(#paint11_linear_272_704)"/>
<path d="M183.903 229.945C183.928 230.11 184.233 232.628 184.351 233.605C184.36 233.712 184.405 233.814 184.479 233.893C184.553 233.973 184.651 234.025 184.759 234.042C185.137 234.087 185.75 234.127 186.285 234.018C186.574 233.959 186.784 233.681 186.784 233.358V229.406L183.903 229.945Z" fill="url(#paint12_linear_272_704)"/>
<path d="M168.338 181.002C168.338 181.002 164.782 212.612 166.758 232.37C166.758 232.37 169.128 232.37 170.314 231.975C170.314 231.975 174.007 201.067 175.204 192.223C175.202 192.145 175.231 192.069 175.284 192.012C175.338 191.954 175.412 191.921 175.491 191.918C175.569 191.916 175.645 191.945 175.702 191.998C175.759 192.052 175.793 192.126 175.795 192.205C177.272 199.646 183.063 228.824 183.752 231.579C183.752 231.579 185.728 232.37 187.308 231.579C187.308 231.579 184.147 189.3 181.777 181.793L168.338 181.002Z" fill="url(#paint13_linear_272_704)"/>
<path d="M161.223 144.255C161.223 144.255 176.238 141.884 188.092 145.046L187.302 157.294C187.302 157.294 184.141 174.285 181.77 181.793C181.77 181.793 172.682 183.373 168.336 181.002C168.336 181.002 164.779 159.665 162.804 156.504C162.807 156.504 160.831 148.207 161.223 144.255Z" fill="url(#paint14_linear_272_704)"/>
<path d="M171.657 133.455L170.16 143.573C170.16 143.573 174.338 145.493 177.264 143.49L176.634 136.352L171.657 133.455Z" fill="url(#paint15_linear_272_704)"/>
<path d="M178.097 126.872C178.144 126.956 179.046 132.058 179.601 135.217C179.655 135.525 179.643 135.84 179.566 136.143C179.49 136.446 179.35 136.729 179.156 136.974C178.962 137.219 178.719 137.42 178.442 137.565C178.165 137.709 177.861 137.793 177.549 137.812L176.338 137.885C175.265 137.949 174.206 137.61 173.37 136.934C172.533 136.258 171.98 135.293 171.817 134.23L170.942 128.507C170.942 128.507 176.954 124.797 178.097 126.872Z" fill="url(#paint16_linear_272_704)"/>
<path d="M169.636 128.521C169.172 127.944 168.767 127.01 169.756 126.029C170.756 125.035 171.892 125.282 172.612 125.616C172.768 125.691 172.943 125.713 173.113 125.679C173.282 125.646 173.436 125.558 173.551 125.43C173.608 125.362 173.681 125.31 173.764 125.279C173.846 125.248 173.936 125.24 174.023 125.254C174.121 125.268 174.221 125.262 174.316 125.237C174.412 125.212 174.502 125.168 174.58 125.107C174.659 125.047 174.724 124.972 174.773 124.886C174.822 124.8 174.854 124.705 174.866 124.607C174.951 123.889 175.333 123.044 176.601 122.8C178.927 122.35 180.088 124.678 180.046 126.314C180.004 127.95 177.455 128.295 176.008 128.023C174.946 127.824 174.027 128.757 173.615 129.267C173.541 129.358 173.488 129.465 173.462 129.579C173.436 129.693 173.436 129.812 173.462 129.926L173.832 131.507C173.577 131.998 173.327 132.5 172.969 132.919C172.756 133.186 172.461 133.375 172.129 133.458C171.696 132.651 170.483 132.514 169.92 132.498C169.813 132.495 169.709 132.47 169.612 132.424C169.516 132.379 169.43 132.314 169.361 132.233C168.935 131.746 168.27 130.657 169.544 129.589C169.695 129.458 169.79 129.273 169.807 129.074C169.824 128.874 169.763 128.676 169.636 128.521Z" fill="url(#paint17_linear_272_704)"/>
<path d="M172.547 135.154C172.547 135.154 172.497 132.299 171.342 132.031C170.187 131.763 168.941 132.598 169.929 134.307C171.158 136.43 172.547 135.154 172.547 135.154Z" fill="url(#paint18_linear_272_704)"/>
<path d="M167.985 157.901C167.985 157.901 134.057 148.669 150.904 124.916L152.043 126.53C152.043 126.53 146.969 142.613 163.782 144.142C163.782 144.142 168.136 155.373 167.985 157.901Z" fill="url(#paint19_linear_272_704)"/>
<path d="M150.789 125.036C150.789 125.036 150.407 120.451 152.7 120.068C154.993 119.685 155.757 121.979 156.138 123.125C156.52 124.271 152.7 126.564 151.935 126.564C151.171 126.564 150.789 125.036 150.789 125.036Z" fill="url(#paint20_linear_272_704)"/>
<path d="M180.224 159.046C180.224 159.046 214.152 149.814 197.305 126.06L196.165 127.674C196.165 127.674 201.241 143.76 184.427 145.289C184.427 145.289 180.072 156.52 180.224 159.046Z" fill="url(#paint21_linear_272_704)"/>
<path d="M197.42 126.182C197.42 126.182 197.802 121.597 195.51 121.214C193.217 120.832 192.452 123.125 192.07 124.272C191.688 125.419 195.51 127.711 196.273 127.711C197.037 127.711 197.42 126.182 197.42 126.182Z" fill="url(#paint22_linear_272_704)"/>
<path d="M132.58 137.327C132.58 137.327 129.639 137.327 127.377 133.934C125.116 130.541 122.174 126.47 116.293 129.637C110.412 132.804 109.507 142.756 116.293 151.128C123.079 159.5 129.865 160.176 136.651 155.426C143.437 150.676 142.984 147.961 149.544 149.092C156.104 150.223 158.818 142.985 157.461 138.009C156.104 133.032 151.806 128.056 145.699 130.544C139.592 133.032 139.591 136.648 132.58 137.327Z" fill="url(#paint23_linear_272_704)"/>
<path d="M163.808 121.477C163.808 121.698 165.644 145.818 155.518 150.319L158.443 155.72C158.443 155.72 172.219 147.429 165.731 121.957L163.808 121.477Z" fill="url(#paint24_linear_272_704)"/>
<path d="M164.201 122.284L163.845 121.571C163.845 121.571 164.201 119.256 167.763 116.228C171.325 113.2 169.901 118.721 169.01 119.256C168.119 119.79 165.804 122.64 165.804 122.64L164.201 122.284Z" fill="url(#paint25_linear_272_704)"/>
<path d="M146.867 148.27C146.867 148.27 154.663 149.821 157.253 149.044C157.253 149.044 159.844 154.037 159.603 158.603C159.372 162.991 155.924 165.048 153.949 173.305C153.867 173.659 153.687 173.982 153.43 174.238C153.173 174.494 152.849 174.672 152.495 174.753C151.228 175.034 149.083 175.142 146.556 173.762C146.25 173.594 145.996 173.347 145.82 173.047C145.643 172.747 145.551 172.405 145.553 172.057C145.57 168.797 145.583 159.096 145.183 155.72C144.705 151.634 146.867 148.27 146.867 148.27Z" fill="url(#paint26_linear_272_704)"/>
<path d="M151.674 143.704L150.036 148.619C149.933 148.918 149.924 149.241 150.011 149.545C150.097 149.849 150.275 150.119 150.52 150.318C151.23 150.882 152.431 151.384 154.125 150.571C154.327 150.475 154.498 150.326 154.622 150.14C154.746 149.954 154.817 149.738 154.827 149.515L155.038 144.666L151.674 143.704Z" fill="url(#paint27_linear_272_704)"/>
<path d="M154.086 135.306C154.086 135.306 159.006 140.225 156.745 145.409C156.706 145.496 156.649 145.574 156.579 145.638C156.508 145.701 156.425 145.749 156.334 145.778C155.484 146.058 152.93 146.546 150.377 143.514C147.251 139.801 149.205 137.066 149.205 137.066L154.086 135.306Z" fill="url(#paint28_linear_272_704)"/>
<path d="M147.96 143.434L149.544 143.208C149.544 143.208 147.508 138.458 149.77 137.553C152.033 136.648 154.973 137.78 154.294 134.839C153.615 131.898 147.508 133.482 145.925 135.744C144.341 138.006 147.96 143.434 147.96 143.434Z" fill="url(#paint29_linear_272_704)"/>
<path d="M150.765 142.339C150.765 142.339 149.202 140.385 148.225 141.753C147.248 143.121 149.983 144.293 150.957 143.707L150.765 142.339Z" fill="url(#paint30_linear_272_704)"/>
<path d="M127.767 130.754C127.767 130.754 134.212 142.998 147.316 148.368C147.316 148.368 149.39 149.752 147.957 154.222C147.887 154.436 147.77 154.632 147.615 154.796C147.46 154.96 147.271 155.088 147.061 155.17C146.851 155.252 146.626 155.286 146.401 155.271C146.176 155.255 145.957 155.19 145.76 155.08C141.489 152.702 129.708 145.008 126.908 131.183L127.767 130.754Z" fill="url(#paint31_linear_272_704)"/>
<path d="M127.767 131.613V130.754L126.61 125.929C126.57 125.764 126.487 125.613 126.368 125.491C126.25 125.369 126.101 125.282 125.937 125.238L120.893 123.88C120.893 123.88 120.678 125.598 123.041 126.457C125.404 127.316 125.189 127.961 125.189 128.606C125.189 129.25 125.404 131.183 127.767 131.613Z" fill="url(#paint32_linear_272_704)"/>
<path d="M128.71 154.289C126.753 154.29 124.821 153.837 123.068 152.965C121.315 152.094 119.788 150.828 118.606 149.267C117.612 147.954 116.908 146.499 116.355 145.249C115.617 143.584 114.73 141.369 114.461 138.99C114.268 137.309 114.313 134.837 115.609 132.598L115.823 132.722C114.558 134.902 114.517 137.318 114.706 138.962C114.975 141.308 115.849 143.5 116.58 145.148C117.131 146.386 117.824 147.826 118.803 149.118C120.505 151.367 122.921 152.97 125.654 153.665C128.388 154.36 131.276 154.105 133.845 152.942L133.947 153.167C132.301 153.909 130.516 154.291 128.71 154.289Z" fill="#BDD0FB"/>
<path d="M135.823 151.962L135.734 151.732C136.014 151.623 136.273 151.466 136.5 151.269L136.662 151.455C136.414 151.671 136.13 151.843 135.823 151.962Z" fill="#BDD0FB"/>
<path d="M126.016 233.832L125.686 236.543C125.656 236.793 125.543 237.026 125.365 237.204C125.187 237.381 124.954 237.494 124.704 237.523C123.835 237.622 122.44 237.724 121.075 237.579C120.935 237.563 120.799 237.516 120.679 237.441C120.559 237.367 120.457 237.266 120.38 237.147C120.303 237.028 120.253 236.894 120.234 236.754C120.215 236.613 120.228 236.471 120.27 236.336C120.603 235.289 121.211 233.718 122.089 232.791H125.097C125.228 232.791 125.358 232.818 125.478 232.872C125.598 232.926 125.705 233.005 125.792 233.104C125.879 233.202 125.944 233.318 125.982 233.444C126.021 233.569 126.033 233.702 126.016 233.832Z" fill="url(#paint33_linear_272_704)"/>
<path d="M149.573 202.071L150.081 205.057C150.081 205.057 148.382 222.277 148.078 229.164C148.031 230.244 148.31 231.312 148.877 232.232L151.831 237.032L144.319 232.601L144.171 231.684L145.401 229.993L143.794 210.702C143.699 209.568 143.933 208.431 144.467 207.428L146.018 204.508L149.573 202.071Z" fill="url(#paint34_linear_272_704)"/>
<path d="M152.327 237.728H149.93C149.709 237.728 149.491 237.678 149.292 237.58C149.093 237.483 148.92 237.341 148.785 237.166C148.037 236.195 146.489 234.3 145.749 234.251C144.751 234.184 144.879 237.728 144.879 237.728H144.32L143.613 233.325C143.526 232.784 143.611 232.231 143.857 231.742C144.102 231.253 144.495 230.853 144.98 230.6C144.98 230.6 145.208 232.285 146.443 233.03C147.679 233.775 151.474 236.445 151.474 236.445C151.799 236.407 152.127 236.416 152.449 236.471C153.202 236.607 153.099 237.728 152.327 237.728Z" fill="url(#paint35_linear_272_704)"/>
<path d="M139.283 203.489C139.283 203.489 129.324 222.381 127.741 226.694C126.157 231.007 125.603 234.605 125.582 234.946C125.549 235.478 124.887 235.989 123.061 235.989C122.119 235.989 121.658 235.612 121.432 235.246C121.338 235.092 121.285 234.916 121.278 234.735C121.271 234.554 121.31 234.374 121.391 234.212C121.967 233.046 123.796 229.32 124.473 227.63C125.281 225.613 127.021 216.47 127.974 213.29C128.927 210.111 130.006 206.662 134.159 203.486C134.159 203.489 137.009 200.697 139.283 203.489Z" fill="url(#paint36_linear_272_704)"/>
<path d="M139.879 177.923C140.823 174.742 145.575 172.532 145.575 172.532C150.317 175.381 153.938 173.313 153.938 173.313C153.938 173.313 155.437 176.986 154.789 180.317C154.141 183.649 150.082 205.055 150.082 205.055C143.683 206.352 133.843 203.75 133.843 203.75C137.918 196.517 138.311 183.211 139.879 177.923Z" fill="url(#paint37_linear_272_704)"/>
<path d="M107.653 232.87C107.653 232.87 106.22 234.864 106.103 237.701C106.093 238.023 106.211 238.336 106.43 238.572C106.65 238.808 106.953 238.948 107.275 238.963L118.051 239.514C118.16 239.52 118.269 239.49 118.361 239.43C118.452 239.37 118.523 239.282 118.561 239.179C118.599 239.076 118.604 238.964 118.574 238.858C118.545 238.752 118.482 238.659 118.396 238.591C116.43 237.054 112.561 234.175 109.713 232.978L107.653 232.87Z" fill="url(#paint38_linear_272_704)"/>
<path d="M107.441 229.423L107.65 233.572C107.654 233.683 107.681 233.792 107.728 233.892C107.775 233.992 107.841 234.083 107.923 234.157C108.004 234.232 108.1 234.29 108.205 234.327C108.309 234.365 108.42 234.381 108.53 234.376C108.875 234.351 109.212 234.267 109.528 234.128C109.703 234.051 109.851 233.924 109.953 233.763C110.056 233.601 110.108 233.413 110.103 233.222L109.997 228.217L107.441 229.423Z" fill="url(#paint39_linear_272_704)"/>
<path d="M61.7415 210.163C61.7415 210.163 59.4933 209.171 56.695 209.64C56.3784 209.697 56.0967 209.876 55.9107 210.138C55.7246 210.401 55.649 210.726 55.7002 211.043L57.3774 221.703C57.3946 221.811 57.4459 221.911 57.5237 221.989C57.6016 222.066 57.702 222.116 57.8105 222.133C57.919 222.149 58.0298 222.131 58.1271 222.08C58.2244 222.029 58.303 221.949 58.3516 221.851C59.4505 219.611 61.4734 215.23 62.062 212.199L61.7415 210.163Z" fill="url(#paint40_linear_272_704)"/>
<path d="M65.0649 209.247L61.0472 210.304C60.9398 210.331 60.8388 210.38 60.7501 210.446C60.6614 210.512 60.5867 210.596 60.5304 210.691C60.4741 210.787 60.4373 210.892 60.422 211.002C60.4068 211.112 60.4134 211.224 60.4416 211.331C60.5378 211.663 60.6902 211.977 60.8921 212.258C61.0032 212.413 61.1582 212.532 61.3373 212.599C61.5164 212.666 61.7113 212.678 61.8973 212.634L66.7717 211.501L65.0649 209.247Z" fill="url(#paint41_linear_272_704)"/>
<path d="M100.237 192.126C100.237 192.126 98.1953 208.415 92.3519 209.039C86.5086 209.663 64.1262 212.894 64.1262 212.894L63.5044 209.536C63.5044 209.536 76.4363 201.703 84.1452 201.827C87.9997 196.107 87.0595 180.304 87.0595 180.304L100.237 192.126Z" fill="url(#paint42_linear_272_704)"/>
<path d="M86.9255 174.454C86.9255 174.454 82.8428 185.244 102.097 199.753C104.662 211.036 106.499 231.37 106.499 231.37L111.054 232.625C111.054 232.625 115.595 203.99 111.601 196.954C107.607 189.917 103.317 182.005 99.4416 178.013C89.0496 173.947 86.9255 174.454 86.9255 174.454Z" fill="url(#paint43_linear_272_704)"/>
<path d="M122.575 128.176C122.575 128.176 122.936 127.341 122.879 126.847C122.821 126.352 122.805 124.81 123.732 124.159C123.732 124.159 124.233 124.183 124.243 124.745C124.834 124.113 124.862 123.567 125.471 123.954C126.08 124.341 128.371 125.732 127.227 126.649C126.082 127.567 124.284 129.308 124.284 129.308L122.575 128.176Z" fill="url(#paint44_linear_272_704)"/>
<path d="M75.0684 122.163C75.3165 140.337 86.377 157.808 86.377 157.808V178.168H99.8421C99.8421 178.168 106.355 162.348 106.185 157.046C116.327 155.952 123.432 132.405 124.456 129.406C123.979 129.042 123.292 128.627 122.315 127.841C107.396 147.985 103.663 149.609 103.663 149.609H96.204C86.7507 148.125 78.7958 122.163 78.7958 122.163H75.0684Z" fill="url(#paint45_linear_272_704)"/>
<path d="M96.3872 141.154L93.9146 149.862C93.9146 149.862 98.1398 152.133 101.264 151.519L102.122 143.843L96.3872 141.154Z" fill="url(#paint46_linear_272_704)"/>
<path d="M99.094 134.777C99.2151 134.84 105.357 141.436 105.357 141.436L101.516 144.863L94.7661 139.472C94.7661 139.472 97.0659 133.73 99.094 134.777Z" fill="url(#paint47_linear_272_704)"/>
<path d="M96.9855 139.673L100.317 142.787C100.359 142.827 100.407 142.861 100.458 142.888C100.776 143.052 101.912 143.538 102.338 142.346C102.725 141.265 103.095 140.284 103.675 139.835C103.801 139.739 103.958 139.693 104.116 139.707C104.274 139.72 104.421 139.793 104.529 139.909C105.087 140.509 106.319 141.883 107.208 143.24C107.294 143.373 107.327 143.534 107.301 143.691C107.274 143.847 107.19 143.989 107.065 144.086C106.286 144.7 104.606 145.949 103.02 146.637C102.915 146.683 102.799 146.7 102.686 146.686C102.572 146.672 102.464 146.627 102.373 146.557C101.472 145.854 98.7255 143.73 97.868 143.257C97.0637 142.814 95.9677 143.405 95.5253 143.69C95.4539 143.735 95.3739 143.766 95.2902 143.78C95.2065 143.793 95.1209 143.79 95.0386 143.77C94.4478 143.622 93.2034 143.119 93.724 141.467C93.7501 141.385 93.7594 141.299 93.7515 141.214C93.7435 141.128 93.7184 141.046 93.6776 140.97C93.6369 140.895 93.5813 140.828 93.5143 140.775C93.4473 140.722 93.3701 140.682 93.2876 140.659C92.5926 140.463 91.6894 139.945 91.9648 138.576C92.2447 137.185 93.3681 136.798 94.1288 136.699C94.2768 136.678 94.413 136.607 94.5135 136.496C94.614 136.386 94.6723 136.243 94.6782 136.094C94.6886 135.917 94.775 135.743 95.0276 135.638C95.1076 135.603 95.1793 135.552 95.2383 135.487C95.2972 135.423 95.342 135.346 95.3698 135.264C95.3976 135.181 95.4078 135.093 95.3998 135.006C95.3917 134.919 95.3656 134.835 95.323 134.759C94.9847 134.136 94.7971 133.225 95.71 132.321C97.3348 130.714 99.5083 131.952 100.352 133.286C101.197 134.62 99.3414 136.261 98.0379 136.82C97.0468 137.244 96.8304 138.558 96.7824 139.163C96.7758 139.258 96.7907 139.353 96.8258 139.441C96.861 139.529 96.9155 139.609 96.9855 139.673Z" fill="url(#paint48_linear_272_704)"/>
<path d="M99.0934 144.379C99.0934 144.379 97.5225 142.122 96.4538 142.527C95.3851 142.932 94.8364 144.269 96.5432 145.107C98.6687 146.149 99.0934 144.379 99.0934 144.379Z" fill="url(#paint49_linear_272_704)"/>
<path d="M74.4478 116.443C74.4478 116.443 78.6353 114.589 78.0969 117.699C77.5585 120.809 78.6826 123.082 76.2963 123.321C73.9101 123.561 73.6383 118.592 74.4478 116.443Z" fill="url(#paint50_linear_272_704)"/>
<defs>
<linearGradient id="paint0_linear_272_704" x1="174.747" y1="-13.2636" x2="110.061" y2="223.753" gradientUnits="userSpaceOnUse">
<stop stop-color="#09005D"/>
<stop offset="1" stop-color="#1A0F91"/>
</linearGradient>
<linearGradient id="paint1_linear_272_704" x1="137.252" y1="60.8929" x2="127.995" y2="176.804" gradientUnits="userSpaceOnUse">
<stop stop-color="#FF928E"/>
<stop offset="1" stop-color="#FE7062"/>
</linearGradient>
<linearGradient id="paint2_linear_272_704" x1="261.758" y1="109.851" x2="214.108" y2="158.982" gradientUnits="userSpaceOnUse">
<stop stop-color="#FF928E"/>
<stop offset="1" stop-color="#FE7062"/>
</linearGradient>
<linearGradient id="paint3_linear_272_704" x1="245.776" y1="222.642" x2="173.948" y2="87.4105" gradientUnits="userSpaceOnUse">
<stop stop-color="#4F52FF"/>
<stop offset="1" stop-color="#4042E2"/>
</linearGradient>
<linearGradient id="paint4_linear_272_704" x1="12.2063" y1="94.2948" x2="49.8242" y2="163.734" gradientUnits="userSpaceOnUse">
<stop stop-color="#FF928E"/>
<stop offset="1" stop-color="#FE7062"/>
</linearGradient>
<linearGradient id="paint5_linear_272_704" x1="43.1417" y1="215.142" x2="62.9686" y2="106.534" gradientUnits="userSpaceOnUse">
<stop stop-color="#4F52FF"/>
<stop offset="1" stop-color="#4042E2"/>
</linearGradient>
<linearGradient id="paint6_linear_272_704" x1="136.083" y1="40.5903" x2="122.541" y2="116.577" gradientUnits="userSpaceOnUse">
<stop stop-color="#E1473D"/>
<stop offset="1" stop-color="#E9605A"/>
</linearGradient>
<linearGradient id="paint7_linear_272_704" x1="171.636" y1="235.904" x2="163.7" y2="235.904" gradientUnits="userSpaceOnUse">
<stop stop-color="#09005D"/>
<stop offset="1" stop-color="#1A0F91"/>
</linearGradient>
<linearGradient id="paint8_linear_272_704" x1="151.636" y1="226.24" x2="180.826" y2="249.16" gradientUnits="userSpaceOnUse">
<stop stop-color="#4F52FF"/>
<stop offset="1" stop-color="#4042E2"/>
</linearGradient>
<linearGradient id="paint9_linear_272_704" x1="169.032" y1="226.591" x2="167.447" y2="240.418" gradientUnits="userSpaceOnUse">
<stop stop-color="#FEBBBA"/>
<stop offset="1" stop-color="#FF928E"/>
</linearGradient>
<linearGradient id="paint10_linear_272_704" x1="195.931" y1="233.043" x2="167.702" y2="255.208" gradientUnits="userSpaceOnUse">
<stop stop-color="#4F52FF"/>
<stop offset="1" stop-color="#4042E2"/>
</linearGradient>
<linearGradient id="paint11_linear_272_704" x1="183.306" y1="236.016" x2="194.476" y2="236.016" gradientUnits="userSpaceOnUse">
<stop stop-color="#09005D"/>
<stop offset="1" stop-color="#1A0F91"/>
</linearGradient>
<linearGradient id="paint12_linear_272_704" x1="185.722" y1="228.359" x2="184.241" y2="241.295" gradientUnits="userSpaceOnUse">
<stop stop-color="#FEBBBA"/>
<stop offset="1" stop-color="#FF928E"/>
</linearGradient>
<linearGradient id="paint13_linear_272_704" x1="200.017" y1="170.96" x2="165.351" y2="226.143" gradientUnits="userSpaceOnUse">
<stop stop-color="#4F52FF"/>
<stop offset="1" stop-color="#4042E2"/>
</linearGradient>
<linearGradient id="paint14_linear_272_704" x1="214.377" y1="12.9895" x2="188.454" y2="103.718" gradientUnits="userSpaceOnUse">
<stop stop-color="#FF928E"/>
<stop offset="1" stop-color="#FE7062"/>
</linearGradient>
<linearGradient id="paint15_linear_272_704" x1="171.541" y1="148.145" x2="176.314" y2="132.343" gradientUnits="userSpaceOnUse">
<stop stop-color="#C4421B"/>
<stop offset="1" stop-color="#5C0E16"/>
</linearGradient>
<linearGradient id="paint16_linear_272_704" x1="770.054" y1="-407.389" x2="779.552" y2="-416.029" gradientUnits="userSpaceOnUse">
<stop stop-color="#C4421B"/>
<stop offset="1" stop-color="#5C0E16"/>
</linearGradient>
<linearGradient id="paint17_linear_272_704" x1="168.781" y1="131.869" x2="180.063" y2="125.715" gradientUnits="userSpaceOnUse">
<stop stop-color="#09005D"/>
<stop offset="1" stop-color="#1A0F91"/>
</linearGradient>
<linearGradient id="paint18_linear_272_704" x1="768.81" y1="-408.77" x2="778.309" y2="-417.411" gradientUnits="userSpaceOnUse">
<stop stop-color="#C4421B"/>
<stop offset="1" stop-color="#5C0E16"/>
</linearGradient>
<linearGradient id="paint19_linear_272_704" x1="196.701" y1="7.93932" x2="170.779" y2="98.668" gradientUnits="userSpaceOnUse">
<stop stop-color="#FF928E"/>
<stop offset="1" stop-color="#FE7062"/>
</linearGradient>
<linearGradient id="paint20_linear_272_704" x1="155.081" y1="117.824" x2="151.068" y2="131.008" gradientUnits="userSpaceOnUse">
<stop stop-color="#C4421B"/>
<stop offset="1" stop-color="#5C0E16"/>
</linearGradient>
<linearGradient id="paint21_linear_272_704" x1="30.8707" y1="-413.141" x2="56.7928" y2="-322.413" gradientUnits="userSpaceOnUse">
<stop stop-color="#FF928E"/>
<stop offset="1" stop-color="#FE7062"/>
</linearGradient>
<linearGradient id="paint22_linear_272_704" x1="193.128" y1="118.971" x2="197.14" y2="132.154" gradientUnits="userSpaceOnUse">
<stop stop-color="#C4421B"/>
<stop offset="1" stop-color="#5C0E16"/>
</linearGradient>
<linearGradient id="paint23_linear_272_704" x1="118.432" y1="127.047" x2="156.584" y2="160.825" gradientUnits="userSpaceOnUse">
<stop stop-color="#09005D"/>
<stop offset="1" stop-color="#1A0F91"/>
</linearGradient>
<linearGradient id="paint24_linear_272_704" x1="170.113" y1="115.344" x2="153.919" y2="170.639" gradientUnits="userSpaceOnUse">
<stop stop-color="#FEBBBA"/>
<stop offset="1" stop-color="#FF928E"/>
</linearGradient>
<linearGradient id="paint25_linear_272_704" x1="167.809" y1="116.306" x2="154.63" y2="161.306" gradientUnits="userSpaceOnUse">
<stop stop-color="#FEBBBA"/>
<stop offset="1" stop-color="#FF928E"/>
</linearGradient>
<linearGradient id="paint26_linear_272_704" x1="145.115" y1="161.599" x2="159.619" y2="161.599" gradientUnits="userSpaceOnUse">
<stop stop-color="#E1473D"/>
<stop offset="1" stop-color="#E9605A"/>
</linearGradient>
<linearGradient id="paint27_linear_272_704" x1="150.12" y1="161.348" x2="153.163" y2="145.168" gradientUnits="userSpaceOnUse">
<stop stop-color="#FEBBBA"/>
<stop offset="1" stop-color="#FF928E"/>
</linearGradient>
<linearGradient id="paint28_linear_272_704" x1="156.689" y1="143.388" x2="146.138" y2="134.14" gradientUnits="userSpaceOnUse">
<stop stop-color="#FEBBBA"/>
<stop offset="1" stop-color="#FF928E"/>
</linearGradient>
<linearGradient id="paint29_linear_272_704" x1="126.915" y1="117.465" x2="165.066" y2="151.244" gradientUnits="userSpaceOnUse">
<stop stop-color="#09005D"/>
<stop offset="1" stop-color="#1A0F91"/>
</linearGradient>
<linearGradient id="paint30_linear_272_704" x1="153.943" y1="146.521" x2="143.392" y2="137.273" gradientUnits="userSpaceOnUse">
<stop stop-color="#FEBBBA"/>
<stop offset="1" stop-color="#FF928E"/>
</linearGradient>
<linearGradient id="paint31_linear_272_704" x1="127.572" y1="128.252" x2="151.202" y2="162.049" gradientUnits="userSpaceOnUse">
<stop stop-color="#FEBBBA"/>
<stop offset="1" stop-color="#FF928E"/>
</linearGradient>
<linearGradient id="paint32_linear_272_704" x1="126.421" y1="129.056" x2="150.051" y2="162.853" gradientUnits="userSpaceOnUse">
<stop stop-color="#FEBBBA"/>
<stop offset="1" stop-color="#FF928E"/>
</linearGradient>
<linearGradient id="paint33_linear_272_704" x1="126.023" y1="235.223" x2="120.225" y2="235.223" gradientUnits="userSpaceOnUse">
<stop stop-color="#4F52FF"/>
<stop offset="1" stop-color="#4042E2"/>
</linearGradient>
<linearGradient id="paint34_linear_272_704" x1="150.524" y1="258.088" x2="142.18" y2="160.564" gradientUnits="userSpaceOnUse">
<stop stop-color="#FEBBBA"/>
<stop offset="1" stop-color="#FF928E"/>
</linearGradient>
<linearGradient id="paint35_linear_272_704" x1="152.961" y1="234.164" x2="143.579" y2="234.164" gradientUnits="userSpaceOnUse">
<stop stop-color="#4F52FF"/>
<stop offset="1" stop-color="#4042E2"/>
</linearGradient>
<linearGradient id="paint36_linear_272_704" x1="133.739" y1="259.539" x2="125.392" y2="161.989" gradientUnits="userSpaceOnUse">
<stop stop-color="#FEBBBA"/>
<stop offset="1" stop-color="#FF928E"/>
</linearGradient>
<linearGradient id="paint37_linear_272_704" x1="158.226" y1="176.894" x2="107.589" y2="231.146" gradientUnits="userSpaceOnUse">
<stop stop-color="#09005D"/>
<stop offset="1" stop-color="#1A0F91"/>
</linearGradient>
<linearGradient id="paint38_linear_272_704" x1="106.763" y1="235.754" x2="119.306" y2="236.381" gradientUnits="userSpaceOnUse">
<stop stop-color="#4F52FF"/>
<stop offset="1" stop-color="#4042E2"/>
</linearGradient>
<linearGradient id="paint39_linear_272_704" x1="107.915" y1="230.502" x2="111.107" y2="230.986" gradientUnits="userSpaceOnUse">
<stop stop-color="#FEBBBA"/>
<stop offset="1" stop-color="#FF928E"/>
</linearGradient>
<linearGradient id="paint40_linear_272_704" x1="58.9917" y1="207.898" x2="60.9987" y2="220.316" gradientUnits="userSpaceOnUse">
<stop stop-color="#4F52FF"/>
<stop offset="1" stop-color="#4042E2"/>
</linearGradient>
<linearGradient id="paint41_linear_272_704" x1="64.3004" y1="210.557" x2="64.4617" y2="213.781" gradientUnits="userSpaceOnUse">
<stop stop-color="#FEBBBA"/>
<stop offset="1" stop-color="#FF928E"/>
</linearGradient>
<linearGradient id="paint42_linear_272_704" x1="41.9226" y1="235.449" x2="92.1533" y2="193" gradientUnits="userSpaceOnUse">
<stop stop-color="#4F52FF"/>
<stop offset="1" stop-color="#4042E2"/>
</linearGradient>
<linearGradient id="paint43_linear_272_704" x1="96.6994" y1="170.313" x2="105.897" y2="229.74" gradientUnits="userSpaceOnUse">
<stop stop-color="#4F52FF"/>
<stop offset="1" stop-color="#4042E2"/>
</linearGradient>
<linearGradient id="paint44_linear_272_704" x1="128.12" y1="125.105" x2="122.999" y2="126.813" gradientUnits="userSpaceOnUse">
<stop stop-color="#FEBBBA"/>
<stop offset="1" stop-color="#FF928E"/>
</linearGradient>
<linearGradient id="paint45_linear_272_704" x1="115.65" y1="90.3077" x2="102.689" y2="119.934" gradientUnits="userSpaceOnUse">
<stop stop-color="#FF928E"/>
<stop offset="1" stop-color="#FE7062"/>
</linearGradient>
<linearGradient id="paint46_linear_272_704" x1="106.475" y1="127.532" x2="88.0392" y2="172.872" gradientUnits="userSpaceOnUse">
<stop stop-color="#FEBBBA"/>
<stop offset="1" stop-color="#FF928E"/>
</linearGradient>
<linearGradient id="paint47_linear_272_704" x1="98.2347" y1="136.629" x2="105.648" y2="152.092" gradientUnits="userSpaceOnUse">
<stop stop-color="#FEBBBA"/>
<stop offset="1" stop-color="#FF928E"/>
</linearGradient>
<linearGradient id="paint48_linear_272_704" x1="97.545" y1="145.16" x2="103.21" y2="134.184" gradientUnits="userSpaceOnUse">
<stop stop-color="#09005D"/>
<stop offset="1" stop-color="#1A0F91"/>
</linearGradient>
<linearGradient id="paint49_linear_272_704" x1="100.915" y1="155.057" x2="97.1571" y2="143.783" gradientUnits="userSpaceOnUse">
<stop stop-color="#FEBBBA"/>
<stop offset="1" stop-color="#FF928E"/>
</linearGradient>
<linearGradient id="paint50_linear_272_704" x1="78.5858" y1="119.155" x2="74.0297" y2="120.084" gradientUnits="userSpaceOnUse">
<stop stop-color="#FEBBBA"/>
<stop offset="1" stop-color="#FF928E"/>
</linearGradient>
</defs>
</svg>
