<svg width="20" height="20" viewBox="0 0 20 20" fill="none" xmlns="http://www.w3.org/2000/svg">
<path d="M11.0276 0.000986255C11.7573 -0.00181397 12.4871 0.00552015 13.2166 0.0229863L13.4106 0.0299863C13.6346 0.0379863 13.8556 0.0479863 14.1226 0.0599863C15.1866 0.109986 15.9126 0.277986 16.5496 0.524986C17.2096 0.778986 17.7656 1.12299 18.3216 1.67899C18.83 2.17859 19.2234 2.78293 19.4746 3.44999C19.7216 4.08699 19.8896 4.81399 19.9396 5.87799C19.9516 6.14399 19.9616 6.36599 19.9696 6.58999L19.9756 6.78399C19.9934 7.51318 20.001 8.24258 19.9986 8.97199L19.9996 9.71799V11.028C20.0021 11.7577 19.9944 12.4875 19.9766 13.217L19.9706 13.411C19.9626 13.635 19.9526 13.856 19.9406 14.123C19.8906 15.187 19.7206 15.913 19.4746 16.55C19.2242 17.2177 18.8307 17.8226 18.3216 18.322C17.8216 18.8303 17.2169 19.2237 16.5496 19.475C15.9126 19.722 15.1866 19.89 14.1226 19.94C13.8556 19.952 13.6346 19.962 13.4106 19.97L13.2166 19.976C12.4871 19.9938 11.7573 20.0014 11.0276 19.999L10.2816 20H8.9726C8.24286 20.0025 7.51313 19.9948 6.7836 19.977L6.5896 19.971C6.35221 19.9624 6.11487 19.9524 5.8776 19.941C4.8136 19.891 4.0876 19.721 3.4496 19.475C2.78228 19.2243 2.17784 18.8308 1.6786 18.322C1.16965 17.8223 0.775825 17.2175 0.524601 16.55C0.277601 15.913 0.1096 15.187 0.0596004 14.123C0.0484633 13.8857 0.0384632 13.6484 0.0296004 13.411L0.0246005 13.217C0.00616412 12.4875 -0.00217011 11.7577 -0.000399562 11.028V8.97199C-0.00319053 8.24259 0.00414359 7.51318 0.0216005 6.78399L0.0286005 6.58999C0.0366005 6.36599 0.0466005 6.14399 0.0586005 5.87799C0.1086 4.81299 0.2766 4.08799 0.5236 3.44999C0.774973 2.78261 1.16956 2.17843 1.6796 1.67999C2.17849 1.17074 2.78256 0.776559 3.4496 0.524986C4.0876 0.277986 4.8126 0.109986 5.8776 0.0599863L6.5896 0.0299863L6.7836 0.0249864C7.51278 0.00655924 8.24219 -0.00177499 8.9716 -1.36727e-05L11.0276 0.000986255ZM9.9996 5.00099C9.33711 4.99162 8.67936 5.11401 8.06458 5.36105C7.4498 5.6081 6.89025 5.97486 6.41845 6.44004C5.94664 6.90522 5.572 7.45952 5.31629 8.07075C5.06057 8.68197 4.92889 9.33793 4.92889 10.0005C4.92889 10.663 5.06057 11.319 5.31629 11.9302C5.572 12.5414 5.94664 13.0958 6.41845 13.5609C6.89025 14.0261 7.4498 14.3929 8.06458 14.6399C8.67936 14.887 9.33711 15.0094 9.9996 15C11.3257 15 12.5975 14.4732 13.5351 13.5355C14.4728 12.5978 14.9996 11.3261 14.9996 9.99999C14.9996 8.6739 14.4728 7.40213 13.5351 6.46445C12.5975 5.52677 11.3257 5.00099 9.9996 5.00099ZM9.9996 7.00099C10.3981 6.99364 10.7941 7.06578 11.1644 7.21319C11.5347 7.3606 11.8719 7.58033 12.1564 7.85953C12.4408 8.13873 12.6668 8.47182 12.821 8.83933C12.9753 9.20684 13.0548 9.6014 13.0549 9.99998C13.0549 10.3986 12.9756 10.7931 12.8214 11.1607C12.6673 11.5283 12.4414 11.8614 12.1571 12.1407C11.8727 12.42 11.5356 12.6399 11.1653 12.7874C10.7951 12.9349 10.3991 13.0072 10.0006 13C9.20495 13 8.44189 12.6839 7.87928 12.1213C7.31667 11.5587 7.0006 10.7956 7.0006 9.99999C7.0006 9.20434 7.31667 8.44127 7.87928 7.87867C8.44189 7.31606 9.20495 6.99999 10.0006 6.99999L9.9996 7.00099ZM15.2496 3.50099C14.927 3.5139 14.6219 3.65114 14.3982 3.88396C14.1745 4.11678 14.0496 4.42712 14.0496 4.74999C14.0496 5.07285 14.1745 5.38319 14.3982 5.61601C14.6219 5.84884 14.927 5.98607 15.2496 5.99899C15.5811 5.99899 15.8991 5.86729 16.1335 5.63287C16.3679 5.39845 16.4996 5.08051 16.4996 4.74899C16.4996 4.41747 16.3679 4.09952 16.1335 3.8651C15.8991 3.63068 15.5811 3.49899 15.2496 3.49899V3.50099Z" fill="#1A1C20"/>
</svg>
