<svg width="28" height="28" viewBox="0 0 28 28" fill="none" xmlns="http://www.w3.org/2000/svg">
<path d="M8.16667 24.5V22.1667H12.8333V18.55C11.8806 18.3361 11.0297 17.9324 10.2807 17.339C9.53167 16.7456 8.98256 16.002 8.63333 15.1083C7.175 14.9333 5.95467 14.2967 4.97233 13.1985C3.99 12.1003 3.49922 10.8119 3.5 9.33333V8.16667C3.5 7.525 3.72867 6.9755 4.186 6.51817C4.64333 6.06083 5.19245 5.83256 5.83333 5.83333H8.16667V3.5H19.8333V5.83333H22.1667C22.8083 5.83333 23.3578 6.062 23.8152 6.51933C24.2725 6.97667 24.5008 7.52578 24.5 8.16667V9.33333C24.5 10.8111 24.0088 12.0995 23.0265 13.1985C22.0442 14.2975 20.8242 14.9341 19.3667 15.1083C19.0167 16.0028 18.4672 16.7467 17.7182 17.3402C16.9692 17.9336 16.1187 18.3369 15.1667 18.55V22.1667H19.8333V24.5H8.16667ZM8.16667 12.6V8.16667H5.83333V9.33333C5.83333 10.0722 6.04722 10.7384 6.475 11.3318C6.90278 11.9253 7.46667 12.348 8.16667 12.6ZM14 16.3333C14.9722 16.3333 15.7986 15.9931 16.4792 15.3125C17.1597 14.6319 17.5 13.8056 17.5 12.8333V5.83333H10.5V12.8333C10.5 13.8056 10.8403 14.6319 11.5208 15.3125C12.2014 15.9931 13.0278 16.3333 14 16.3333ZM19.8333 12.6C20.5333 12.3472 21.0972 11.9241 21.525 11.3307C21.9528 10.7372 22.1667 10.0714 22.1667 9.33333V8.16667H19.8333V12.6Z" fill="#1A1C20"/>
</svg>
