<svg width="18" height="18" viewBox="0 0 18 18" fill="none" xmlns="http://www.w3.org/2000/svg">
<path d="M9.75451 14.3545C9.85518 14.4548 9.93505 14.574 9.98956 14.7052C10.0441 14.8365 10.0721 14.9772 10.0721 15.1193C10.0721 15.2614 10.0441 15.4021 9.98956 15.5333C9.93505 15.6645 9.85518 15.7837 9.75451 15.884L9.21999 16.4184C8.20711 17.4311 6.83336 18 5.40094 18C3.96852 18 2.59477 17.4311 1.5819 16.4184C0.569026 15.4057 0 14.0323 0 12.6001C0 11.168 0.569026 9.79453 1.5819 8.78186L3.75238 6.61271C4.72558 5.6373 6.03497 5.07085 7.41235 5.02936C8.78973 4.98788 10.1309 5.47452 11.161 6.38959C11.2674 6.48411 11.3541 6.59864 11.4161 6.72666C11.4782 6.85468 11.5145 6.99366 11.5228 7.13569C11.5312 7.27771 11.5115 7.41999 11.4648 7.5544C11.4182 7.68881 11.3455 7.81272 11.251 7.91906C11.1565 8.02539 11.0419 8.11207 10.9138 8.17414C10.7858 8.23621 10.6468 8.27245 10.5047 8.28081C10.3627 8.28916 10.2204 8.26946 10.0859 8.22283C9.9515 8.17619 9.82757 8.10355 9.72121 8.00903C9.10347 7.46051 8.29945 7.1687 7.47362 7.19328C6.6478 7.21787 5.86257 7.55699 5.27856 8.14128L3.10988 10.3077C2.50225 10.9152 2.16089 11.7392 2.16089 12.5983C2.16089 13.4575 2.50225 14.2814 3.10988 14.8889C3.71751 15.4965 4.54163 15.8377 5.40094 15.8377C6.26026 15.8377 7.08438 15.4965 7.69201 14.8889L8.22653 14.3545C8.32682 14.2542 8.44591 14.1745 8.577 14.1202C8.70809 14.0659 8.84861 14.0379 8.99052 14.0379C9.13243 14.0379 9.27294 14.0659 9.40403 14.1202C9.53512 14.1745 9.65422 14.2542 9.75451 14.3545ZM16.4207 1.57895C15.407 0.567837 14.0336 0 12.6017 0C11.1698 0 9.79635 0.567837 8.78265 1.57895L8.24813 2.11337C8.04527 2.31619 7.9313 2.59127 7.9313 2.8781C7.9313 3.16493 8.04527 3.44002 8.24813 3.64284C8.45099 3.84566 8.72613 3.9596 9.01302 3.9596C9.29991 3.9596 9.57504 3.84566 9.77791 3.64284L10.3124 3.10842C10.9201 2.50091 11.7442 2.15962 12.6035 2.15962C13.4628 2.15962 14.2869 2.50091 14.8946 3.10842C15.5022 3.71593 15.8435 4.53988 15.8435 5.39903C15.8435 6.25817 15.5022 7.08213 14.8946 7.68964L12.725 9.85969C12.1405 10.4437 11.3548 10.7824 10.5288 10.8063C9.70272 10.8302 8.89877 10.5376 8.28142 9.98834C8.17507 9.89382 8.05113 9.82117 7.9167 9.77454C7.78226 9.72791 7.63995 9.70821 7.4979 9.71656C7.35584 9.72492 7.21683 9.76116 7.08879 9.82323C6.96074 9.8853 6.84618 9.97198 6.75165 10.0783C6.65711 10.1846 6.58444 10.3086 6.5378 10.443C6.49116 10.5774 6.47146 10.7197 6.47981 10.8617C6.48817 11.0037 6.52442 11.1427 6.5865 11.2707C6.64858 11.3987 6.73528 11.5133 6.84163 11.6078C7.87107 12.5226 9.21129 13.0096 10.588 12.9689C11.9648 12.9283 13.2739 12.3632 14.2476 11.3892L16.418 9.22001C17.4305 8.20676 17.9995 6.83321 18 5.40094C18.0005 3.96866 17.4325 2.59471 16.4207 1.58075V1.57895Z" fill="#1A1C20"/>
</svg>
