<svg width="197" height="198" viewBox="0 0 197 198" fill="none" xmlns="http://www.w3.org/2000/svg">
<path d="M134.359 172.638C134.086 177.587 129.595 181.668 124.326 181.668H32.8732C27.5848 181.668 23.1393 177.579 22.9437 172.62L16.8876 19.1057C16.6352 12.7121 21.3536 7.47484 27.4324 7.49469L132.486 7.8229C138.538 7.84275 143.155 13.1169 142.804 19.4934L134.359 172.638Z" fill="url(#paint0_linear_272_610)"/>
<path d="M132.524 11.0533L27.7251 10.7194C23.3476 10.7059 19.9378 14.4553 20.1087 19.0659L25.7933 172.52C25.9259 176.105 29.1358 178.996 32.9624 178.996L124.608 179C128.421 179 131.665 176.116 131.854 172.538L139.974 19.4289C140.218 14.8303 136.884 11.0675 132.524 11.0533Z" fill="url(#paint1_linear_272_610)"/>
<path d="M36.8537 22.1943C36.9104 24.4997 35.1856 26.3577 33.0008 26.3513C30.816 26.3449 28.9878 24.4763 28.9176 22.1688C28.8474 19.8614 30.5722 17.9793 32.7704 17.9863C34.9687 17.9934 36.797 19.8812 36.8537 22.1943Z" fill="url(#paint2_linear_272_610)"/>
<path d="M131.152 22.4751C131.045 24.7754 129.194 26.6292 127.017 26.6235C124.84 26.6178 123.151 24.752 123.244 22.451C123.338 20.1499 125.19 18.2685 127.381 18.2763C129.571 18.2841 131.26 20.1662 131.152 22.4751Z" fill="url(#paint3_linear_272_610)"/>
<path d="M40.4645 169.474C40.5092 171.296 38.9709 172.769 37.0278 172.769C35.0847 172.768 33.4649 171.295 33.4124 169.472C33.36 167.65 34.8954 166.157 36.8492 166.158C38.8029 166.159 40.4199 167.645 40.4645 169.474Z" fill="url(#paint4_linear_272_610)"/>
<path d="M124.315 169.492C124.23 171.312 122.591 172.783 120.655 172.783C118.718 172.783 117.207 171.31 117.281 169.491C117.355 167.671 118.994 166.182 120.942 166.182C122.89 166.183 124.4 167.667 124.315 169.492Z" fill="url(#paint5_linear_272_610)"/>
<path d="M106.243 60.1606C105.818 74.9624 93.8842 86.6946 79.5667 86.669C65.2491 86.6435 53.4794 74.8581 53.2908 60.0408C53.1015 44.8747 65.0627 32.3493 80.0027 32.3939C94.9426 32.4386 106.676 45.0115 106.243 60.1606Z" fill="#7D97F4"/>
<path d="M102.101 60.1514C101.784 72.6591 91.7141 82.6035 79.5991 82.5815C67.4841 82.5596 57.5525 72.5691 57.4405 60.05C57.3214 47.2835 67.409 36.7742 79.9671 36.8082C92.5251 36.8422 102.424 47.3962 102.101 60.1514Z" fill="url(#paint6_linear_272_610)"/>
<path d="M96.9919 60.14C96.7849 69.8058 89.019 77.5214 79.6403 77.5029C70.2616 77.4845 62.6091 69.7342 62.5559 60.0641C62.5035 50.2438 70.2829 42.1929 79.9239 42.2177C89.5648 42.2425 97.2017 50.3268 96.9919 60.14Z" fill="#7D97F4"/>
<path d="M87.6231 60.1188C87.5608 64.5409 84.0205 68.0967 79.7161 68.0875C75.4117 68.0783 71.9261 64.5069 71.9346 60.0855C71.9438 55.6315 75.4854 52.0041 79.8451 52.0161C84.2049 52.0282 87.6855 55.6655 87.6231 60.1188Z" fill="url(#paint7_linear_272_610)"/>
<path d="M74.8702 60.1464C74.8262 60.1458 74.7828 60.1365 74.7424 60.119C74.702 60.1015 74.6654 60.0763 74.6348 60.0447C74.6042 60.0131 74.5801 59.9757 74.5639 59.9348C74.5478 59.8939 74.5398 59.8502 74.5406 59.8062C74.5526 56.7749 76.9735 54.3037 79.9374 54.3108C80.114 54.3111 80.2905 54.3204 80.4662 54.3385C80.5537 54.3512 80.6328 54.3973 80.6871 54.467C80.7414 54.5368 80.7666 54.6248 80.7574 54.7127C80.7483 54.8007 80.7055 54.8816 80.638 54.9387C80.5705 54.9958 80.4836 55.0246 80.3953 55.019C80.2411 55.0028 80.0861 54.9947 79.931 54.9949C77.3358 54.9885 75.214 57.1521 75.202 59.8076C75.2027 59.8964 75.1683 59.982 75.1061 60.0455C75.0439 60.109 74.9591 60.1453 74.8702 60.1464Z" fill="#7D97F4"/>
<path d="M115.756 130.186C115.021 149.43 98.5563 164.584 78.9383 164.577C59.3076 164.571 43.0498 149.385 42.6266 130.114C42.1899 110.215 58.7029 93.6283 79.509 93.6623C100.299 93.6977 116.51 110.315 115.756 130.186Z" fill="#7D97F4"/>
<path d="M110.037 130.18C109.495 146.453 95.6015 159.324 78.9822 159.316C62.3628 159.308 48.6415 146.414 48.3579 130.121C48.0694 113.382 61.9956 99.4965 79.4607 99.5192C96.9165 99.5468 110.594 113.465 110.037 130.18Z" fill="url(#paint8_linear_272_610)"/>
<path d="M102.984 130.173C102.637 142.76 91.9205 152.769 79.0349 152.761C66.1494 152.754 55.5741 142.726 55.4287 130.128C55.2813 117.264 66.0175 106.651 79.405 106.669C92.7925 106.688 103.337 117.322 102.984 130.173Z" fill="#7D97F4"/>
<path d="M90.0475 130.161C89.9496 135.929 85.0639 140.561 79.1305 140.557C73.197 140.553 68.3844 135.911 68.3794 130.141C68.3744 124.315 73.2637 119.557 79.2964 119.564C85.3291 119.571 90.146 124.338 90.0475 130.161Z" fill="url(#paint9_linear_272_610)"/>
<path d="M72.4365 130.218C72.3774 130.219 72.3187 130.208 72.2638 130.186C72.2089 130.165 72.1588 130.132 72.1164 130.091C72.074 130.05 72.0401 130.001 72.0167 129.946C71.9933 129.892 71.9808 129.834 71.98 129.775C71.9885 125.811 75.3309 122.571 79.4312 122.576C79.6757 122.576 79.9217 122.588 80.1628 122.611C80.2219 122.616 80.2796 122.633 80.3323 122.66C80.385 122.687 80.4317 122.725 80.4698 122.771C80.5078 122.816 80.5363 122.869 80.5537 122.926C80.5711 122.982 80.577 123.042 80.5711 123.101C80.5563 123.221 80.4951 123.33 80.4005 123.405C80.306 123.48 80.1857 123.515 80.0656 123.502C79.853 123.483 79.6403 123.472 79.4241 123.472C75.8335 123.468 72.9023 126.308 72.8945 129.775C72.8934 129.835 72.8808 129.893 72.8572 129.947C72.8337 130.001 72.7996 130.05 72.7571 130.092C72.7146 130.133 72.6644 130.165 72.6094 130.187C72.5544 130.208 72.4956 130.219 72.4365 130.218Z" fill="#7D97F4"/>
<path d="M146.318 28.1363C146.318 28.1363 149.284 21.3352 147.85 20.4526C147.85 20.4526 146.857 19.6438 144.943 27.3665C144.724 28.617 146.318 28.1363 146.318 28.1363Z" fill="url(#paint10_linear_272_610)"/>
<path d="M150.425 31.1767C150.425 31.1767 155.451 25.7182 154.384 24.4153C154.384 24.4153 153.71 23.3264 149.379 30.0006C148.765 31.1101 150.425 31.1767 150.425 31.1767Z" fill="url(#paint11_linear_272_610)"/>
<path d="M135.927 59.8395C135.927 59.8395 127.194 54.8545 131.567 50.2694C135.939 45.6843 144.947 36.1758 144.947 36.1758L141.277 32.1281C141.277 32.1281 120.1 45.1753 121.722 55.2543C123.344 65.3334 127.8 69.6676 127.8 69.6676L135.927 59.8395Z" fill="url(#paint12_linear_272_610)"/>
<path d="M150.258 63.0174C150.258 63.0174 134.468 58.3224 133.925 51.8083L121.343 63.3307C121.343 63.3307 130.872 80.6434 144.582 78.4252C148.061 72.2075 150.258 63.0174 150.258 63.0174Z" fill="url(#paint13_linear_272_610)"/>
<path d="M177.809 161.717C177.809 161.717 181.189 159.701 184.649 157.989C186.002 157.32 187.6 157.796 188.16 159.023C190.062 163.194 194.092 172.131 195.237 175.457C195.409 175.958 194.976 176.504 194.392 176.527C193.922 176.553 193.459 176.398 193.098 176.095L179.352 164.176L177.809 161.717Z" fill="url(#paint14_linear_272_610)"/>
<path d="M175.52 162.147L180.042 160.929C180.042 160.929 182.594 163.324 181.856 165.953L176.557 166.662L175.52 162.147Z" fill="url(#paint15_linear_272_610)"/>
<path d="M95.7912 187.899C95.7912 187.899 94.7612 191.711 93.4306 195.338C93.3063 195.674 93.1152 195.981 92.8688 196.241C92.6225 196.501 92.326 196.709 91.9972 196.851C91.6685 196.993 91.3143 197.067 90.9561 197.069C90.5979 197.071 90.2431 197 89.913 196.86C85.1833 194.875 75.0822 190.593 71.5952 188.763C71.4738 188.698 71.3696 188.606 71.2911 188.493C71.2127 188.38 71.1623 188.25 71.1442 188.114C71.1261 187.978 71.1408 187.839 71.1871 187.71C71.2333 187.58 71.3098 187.464 71.4102 187.37C71.7721 187.031 72.2505 186.844 72.7464 186.848L92.677 187.008L95.7912 187.899Z" fill="url(#paint16_linear_272_610)"/>
<path d="M97.2713 186.069L94.7958 190.044C94.7958 190.044 91.2967 190.033 90.042 187.607L93.4333 183.474L97.2713 186.069Z" fill="url(#paint17_linear_272_610)"/>
<path d="M134.049 106.744C133.748 107.945 109.454 162.151 92.3975 183.547C92.2615 183.714 92.1901 183.925 92.1962 184.141C92.2023 184.357 92.2855 184.563 92.4308 184.723C93.1433 185.497 94.6284 186.829 96.6643 187.871C96.9715 188.028 97.3219 188.078 97.6607 188.014C97.9995 187.949 98.3073 187.775 98.5358 187.516C102.803 182.696 129.272 155.65 142.858 129.377C158.038 100.02 145.886 112.299 145.886 112.299L134.049 106.744Z" fill="url(#paint18_linear_272_610)"/>
<path d="M158.429 119.363C157.543 133.779 158.227 136.419 153.865 151.303C148.633 169.153 166.616 163.573 175.873 161.326C177.043 161.042 178.42 164.672 177.052 168.226C175.269 172.859 138.122 181.391 137.837 162.898C137.655 151.086 141.432 139.661 141.125 132.216C141.086 131.287 140.727 130.401 140.109 129.707L132.449 121.1L134.161 110.422L158.429 119.363Z" fill="url(#paint19_linear_272_610)"/>
<path d="M193.324 90.8855L189.149 80.6342C183.312 70.8833 176.139 69.9107 176.138 69.91C175.802 69.2146 175.376 68.7644 174.858 68.6624C174.858 68.6624 151.952 56.3581 144.613 66.866C137.274 77.374 127.776 111.569 129.856 113.07C136.274 116.74 158.283 125.365 159.788 123.554C161.021 122.071 167.281 101.171 171.565 91.6015C172.688 94.0061 173.975 96.3307 175.417 98.5586L193.324 90.8855Z" fill="url(#paint20_linear_272_610)"/>
<path d="M167.827 54.1436L169.528 67.5643C169.582 67.9825 169.5 68.4069 169.293 68.7744C169.086 69.142 168.766 69.4329 168.381 69.6038C166.759 70.3205 163.792 71.3009 160.329 70.8962C159.295 70.7756 158.552 69.8385 158.627 68.8014L159.447 58.0205L167.827 54.1436Z" fill="url(#paint21_linear_272_610)"/>
<path d="M157.413 42.7118C157.307 42.8756 154.308 54.3377 152.99 59.3921C152.911 59.6951 152.894 60.0109 152.941 60.3205C152.988 60.63 153.097 60.9268 153.262 61.1929C153.427 61.4589 153.644 61.6887 153.901 61.8682C154.157 62.0476 154.448 62.1731 154.754 62.2369L158.759 62.5751C160.048 62.6839 161.336 62.3519 162.412 61.6334C163.487 60.9149 164.288 59.8526 164.681 58.6201L168.886 52.6406C171.172 49.3903 169.838 44.835 166.141 43.3782C162.498 41.9441 158.56 40.9453 157.413 42.7118Z" fill="url(#paint22_linear_272_610)"/>
<path d="M166.42 54.1307L165.239 53.6763C165.239 53.6763 169.037 45.9196 163.914 45.8466C158.791 45.7736 154.177 45.0817 153.904 42.266C153.632 39.4502 153.142 34.3809 159.555 36.0355C165.968 37.6901 165.785 41.6861 169.219 41.9193C172.653 42.1525 175.523 42.4467 174.724 45.9352C173.924 49.4237 171.888 51.8899 173.124 52.9107C174.359 53.9316 169.835 60.0521 166.42 54.1307Z" fill="url(#paint23_linear_272_610)"/>
<path d="M165.429 56.4389C165.429 56.4389 165.887 51.3965 167.965 51.0718C170.043 50.7471 172.14 52.3854 170.171 55.2805C167.722 58.8803 165.429 56.4389 165.429 56.4389Z" fill="url(#paint24_linear_272_610)"/>
<path d="M156.84 42.6466H156.835C156.583 42.6046 156.342 42.51 156.129 42.369C155.916 42.2281 155.736 42.044 155.598 41.8286C155.063 41.0148 155.054 39.7586 155.571 38.0948C155.574 38.0874 155.577 38.0806 155.582 38.0746C155.587 38.0687 155.594 38.0638 155.6 38.0602C155.607 38.0566 155.615 38.0544 155.623 38.0537C155.63 38.053 155.638 38.0539 155.645 38.0562C155.653 38.0585 155.66 38.0623 155.666 38.0673C155.672 38.0722 155.677 38.0783 155.68 38.0852C155.684 38.0921 155.686 38.0996 155.687 38.1074C155.687 38.1151 155.686 38.1229 155.684 38.1303C155.178 39.7607 155.182 40.9807 155.698 41.7634C155.826 41.9627 155.995 42.1333 156.192 42.2645C156.39 42.3958 156.612 42.4848 156.846 42.5261C156.862 42.5279 156.876 42.5357 156.886 42.5479C156.896 42.5601 156.901 42.5757 156.899 42.5913C156.898 42.6063 156.891 42.6202 156.88 42.6305C156.87 42.6407 156.855 42.6465 156.84 42.6466Z" fill="white"/>
<path d="M155.036 103.053C155.036 103.053 175.635 72.0155 174.858 68.6624L172.921 67.7019C172.921 67.7019 175.593 67.3113 177.506 69.0906C179.419 70.8699 159.789 104.175 159.789 104.175L155.036 103.053Z" fill="url(#paint25_linear_272_610)"/>
<path d="M138.932 78.2764C138.932 78.2764 136.192 93.6693 138.932 100.516C135.104 100.664 135.8 99.059 135.8 99.059C135.8 99.059 132.158 83.8639 135.8 77.2832L138.932 78.2764Z" fill="url(#paint26_linear_272_610)"/>
<path d="M98.374 51.8359L95.9263 54.6064L96.5287 55.1387L98.9764 52.3682L98.374 51.8359Z" fill="url(#paint27_linear_272_610)"/>
<path d="M98.2705 50.7645L97.9246 51.1561C97.8144 51.2807 97.8262 51.4711 97.9509 51.5813L99.1861 52.6726C99.3108 52.7827 99.5012 52.771 99.6113 52.6463L99.9572 52.2547C100.067 52.13 100.056 51.9396 99.9309 51.8295L98.6958 50.7382C98.5711 50.628 98.3807 50.6398 98.2705 50.7645Z" fill="url(#paint28_linear_272_610)"/>
<path d="M94.5747 49.3361L92.127 52.1066L92.7294 52.6388L95.1771 49.8683L94.5747 49.3361Z" fill="url(#paint29_linear_272_610)"/>
<path d="M94.8998 48.2469L96.1347 49.3379C96.1643 49.3641 96.1885 49.3959 96.2059 49.4314C96.2233 49.467 96.2335 49.5056 96.2359 49.5451C96.2383 49.5846 96.233 49.6242 96.2201 49.6616C96.2072 49.699 96.1871 49.7336 96.1609 49.7632L95.815 50.1552C95.7888 50.1849 95.757 50.2091 95.7214 50.2265C95.6859 50.2438 95.6472 50.254 95.6077 50.2565C95.5682 50.2589 95.5286 50.2535 95.4912 50.2407C95.4538 50.2278 95.4193 50.2077 95.3896 50.1815L94.1547 49.0905C94.095 49.0375 94.0587 48.9629 94.0538 48.8832C94.0489 48.8035 94.0757 48.7251 94.1285 48.6651L94.4744 48.2738C94.5006 48.2441 94.5323 48.2199 94.5679 48.2024C94.6034 48.185 94.642 48.1747 94.6815 48.1722C94.721 48.1697 94.7606 48.175 94.7981 48.1878C94.8355 48.2007 94.8701 48.2207 94.8998 48.2469Z" fill="url(#paint30_linear_272_610)"/>
<path d="M90.2944 46.413L87.8467 49.1835L88.4491 49.7157L90.8968 46.9452L90.2944 46.413Z" fill="url(#paint31_linear_272_610)"/>
<path d="M90.1919 45.3419L89.846 45.7334C89.7358 45.8581 89.7476 46.0485 89.8723 46.1587L91.1074 47.25C91.2321 47.3601 91.4225 47.3484 91.5327 47.2237L91.8786 46.8321C91.9888 46.7074 91.977 46.517 91.8523 46.4069L90.6171 45.3156C90.4924 45.2054 90.302 45.2172 90.1919 45.3419Z" fill="url(#paint32_linear_272_610)"/>
<path d="M92.0942 58.9424L89.6465 61.7129L90.2489 62.2451L92.6966 59.4746L92.0942 58.9424Z" fill="url(#paint33_linear_272_610)"/>
<path d="M88.6937 62.0703L89.9286 63.1613C89.9583 63.1875 89.9928 63.2076 90.0302 63.2205C90.0676 63.2333 90.1072 63.2387 90.1467 63.2363C90.1862 63.2338 90.2249 63.2237 90.2604 63.2063C90.296 63.1889 90.3278 63.1647 90.354 63.1351L90.6999 62.7437C90.7525 62.6837 90.7792 62.6053 90.7743 62.5257C90.7694 62.446 90.7332 62.3715 90.6737 62.3184L89.4388 61.2274C89.4091 61.2012 89.3746 61.1811 89.3372 61.1682C89.2998 61.1554 89.2602 61.15 89.2207 61.1524C89.1812 61.1549 89.1425 61.1651 89.107 61.1824C89.0714 61.1998 89.0396 61.224 89.0134 61.2536L88.6675 61.6457C88.6148 61.7055 88.5879 61.7838 88.5929 61.8634C88.5978 61.943 88.6341 62.0174 88.6937 62.0703Z" fill="url(#paint34_linear_272_610)"/>
<path d="M89.1474 55.4818L86.6997 58.2523L87.3022 58.7846L89.7499 56.0141L89.1474 55.4818Z" fill="url(#paint35_linear_272_610)"/>
<path d="M86.0635 57.7795L85.7175 58.1711C85.6074 58.2958 85.6192 58.4862 85.7439 58.5963L86.979 59.6876C87.1037 59.7978 87.2941 59.786 87.4043 59.6613L87.7502 59.2697C87.8604 59.145 87.8486 58.9546 87.7239 58.8445L86.4887 57.7532C86.364 57.6431 86.1736 57.6548 86.0635 57.7795Z" fill="url(#paint36_linear_272_610)"/>
<path d="M85.7177 51.5923L83.27 54.3628L83.8725 54.895L86.3202 52.1245L85.7177 51.5923Z" fill="url(#paint37_linear_272_610)"/>
<path d="M82.3171 54.7185L83.552 55.8095C83.5817 55.8357 83.6162 55.8558 83.6536 55.8687C83.691 55.8815 83.7306 55.8869 83.7701 55.8845C83.8096 55.882 83.8483 55.8718 83.8838 55.8545C83.9194 55.8371 83.9512 55.8129 83.9774 55.7832L84.3233 55.3912C84.3495 55.3616 84.3696 55.327 84.3825 55.2896C84.3954 55.2522 84.4007 55.2126 84.3983 55.1731C84.3959 55.1336 84.3857 55.095 84.3683 55.0594C84.3509 55.0239 84.3267 54.9921 84.2971 54.9659L83.0622 53.8749C83.0325 53.8487 82.998 53.8286 82.9606 53.8157C82.9232 53.8028 82.8836 53.7975 82.8441 53.7999C82.8046 53.8023 82.7659 53.8125 82.7304 53.8299C82.6948 53.8473 82.663 53.8715 82.6368 53.9011L82.2909 54.2931C82.2647 54.3228 82.2446 54.3573 82.2317 54.3947C82.2188 54.4321 82.2135 54.4717 82.2159 54.5112C82.2183 54.5507 82.2285 54.5894 82.2459 54.6249C82.2633 54.6605 82.2875 54.6923 82.3171 54.7185Z" fill="url(#paint38_linear_272_610)"/>
<path d="M136.333 93.3029L137.723 94.4932C137.872 94.6202 138.063 94.6861 138.259 94.6775L144.213 94.4194C144.907 94.3889 145.597 94.523 146.229 94.8107L195.713 117.33C196.055 117.486 196.345 117.736 196.549 118.051C196.754 118.366 196.864 118.733 196.866 119.109L196.872 119.925C196.874 120.188 196.824 120.449 196.723 120.692C196.623 120.935 196.475 121.156 196.288 121.341C196.101 121.526 195.878 121.672 195.634 121.769C195.39 121.867 195.128 121.915 194.865 121.91L166.1 121.36C166.03 121.359 165.96 121.373 165.896 121.401C165.832 121.429 165.774 121.471 165.728 121.524C165.54 121.736 165.401 121.986 165.319 122.256C165.237 122.527 165.214 122.812 165.252 123.092L169.093 151.459C169.157 151.927 169.05 152.403 168.791 152.798C168.533 153.194 168.141 153.484 167.687 153.615L166.779 153.877C166.355 153.999 165.903 153.975 165.494 153.81C165.086 153.644 164.744 153.346 164.525 152.964L136.189 103.487L134.243 98.4148C133.93 97.5965 133.846 96.7079 134.002 95.8456C134.158 94.9833 134.547 94.1801 135.127 93.5234L135.253 93.3816C135.386 93.2291 135.575 93.1354 135.777 93.1207C135.979 93.106 136.179 93.1714 136.333 93.3029Z" fill="url(#paint39_linear_272_610)"/>
<path d="M147.119 97.8355L176.827 112.699C176.995 112.783 177.142 112.905 177.256 113.055C177.37 113.205 177.448 113.379 177.484 113.564C177.52 113.749 177.513 113.94 177.463 114.122C177.413 114.304 177.323 114.472 177.198 114.613C176.846 115.011 176.388 115.301 175.877 115.449C175.366 115.597 174.824 115.597 174.314 115.449L160.059 112.889L158.22 116.088L160.794 131.613C160.863 132.024 160.839 132.445 160.724 132.845C160.609 133.246 160.406 133.615 160.13 133.927L160.121 133.938C159.942 134.14 159.718 134.298 159.467 134.397C159.216 134.496 158.945 134.535 158.676 134.51C158.407 134.485 158.147 134.396 157.919 134.252C157.691 134.108 157.5 133.912 157.361 133.68L140.405 105.236C140.107 104.737 139.975 104.156 140.029 103.577C140.083 102.999 140.32 102.452 140.705 102.017L143.837 98.4721C144.237 98.019 144.776 97.711 145.37 97.5958C145.963 97.4807 146.578 97.565 147.119 97.8355Z" fill="url(#paint40_linear_272_610)"/>
<path d="M145.516 97.7859C145.564 97.8278 145.603 97.8787 145.63 97.9356C145.658 97.9925 145.675 98.0543 145.679 98.1175C145.682 98.1807 145.674 98.2441 145.653 98.304C145.632 98.3639 145.6 98.4191 145.558 98.4665L142.684 101.719C142.642 101.766 142.592 101.805 142.535 101.833C142.478 101.861 142.416 101.877 142.353 101.881C142.289 101.885 142.226 101.876 142.166 101.856C142.106 101.835 142.051 101.803 142.004 101.761L98.1558 63.0175L101.668 59.042L145.516 97.7859Z" fill="url(#paint41_linear_272_610)"/>
<path d="M86.652 46.7724L98.6458 54.1308C98.9697 54.3292 99.2291 54.6173 99.3926 54.9602C99.5562 55.303 99.6169 55.6859 99.5673 56.0625L99.5744 57.072L101.668 59.042L101.219 59.6091L98.1552 63.0161L95.4806 61.1361L92.3501 61.2686C92.0333 61.282 91.7181 61.2185 91.4312 61.0835C91.1443 60.9486 90.8944 60.7463 90.7026 60.4938L83.0962 50.4764C82.8126 50.1028 82.6796 49.6364 82.7236 49.1694C82.7676 48.7024 82.9853 48.269 83.3337 47.9549L84.4204 46.9759C84.7205 46.7056 85.1001 46.5398 85.5024 46.5031C85.9046 46.4664 86.3079 46.5609 86.652 46.7724Z" fill="url(#paint42_linear_272_610)"/>
<path d="M127.427 88.8822C127.399 88.9141 127.384 88.956 127.387 88.9985C127.39 89.041 127.409 89.0808 127.441 89.109C127.473 89.1372 127.515 89.1515 127.557 89.1488C127.6 89.1462 127.64 89.1267 127.668 89.0948L131.283 84.9988C131.297 84.983 131.308 84.9646 131.315 84.9446C131.322 84.9247 131.325 84.9035 131.323 84.8825C131.322 84.8614 131.317 84.8408 131.307 84.8218C131.298 84.8028 131.285 84.7859 131.269 84.772C131.253 84.758 131.235 84.7472 131.215 84.7403C131.195 84.7334 131.174 84.7306 131.153 84.7319C131.132 84.7332 131.111 84.7387 131.092 84.748C131.073 84.7573 131.056 84.7703 131.042 84.7862L127.427 88.8822Z" fill="url(#paint43_linear_272_610)"/>
<path d="M117.791 80.367C117.777 80.3828 117.766 80.4012 117.759 80.4211C117.752 80.4411 117.749 80.4623 117.751 80.4833C117.752 80.5044 117.758 80.525 117.767 80.544C117.776 80.563 117.789 80.5799 117.805 80.5938C117.821 80.6078 117.839 80.6186 117.859 80.6255C117.879 80.6324 117.9 80.6352 117.921 80.6339C117.943 80.6326 117.963 80.6271 117.982 80.6178C118.001 80.6085 118.018 80.5955 118.032 80.5796L121.651 76.4843C121.679 76.4522 121.693 76.4103 121.691 76.3676C121.688 76.325 121.669 76.2851 121.637 76.2568C121.605 76.2286 121.563 76.2143 121.52 76.217C121.478 76.2196 121.438 76.2391 121.41 76.271L117.791 80.367Z" fill="url(#paint44_linear_272_610)"/>
<path d="M108.154 71.8531C108.14 71.8689 108.129 71.8874 108.123 71.9073C108.116 71.9273 108.113 71.9484 108.114 71.9695C108.115 71.9906 108.121 72.0112 108.13 72.0302C108.14 72.0491 108.152 72.0661 108.168 72.08C108.184 72.094 108.203 72.1048 108.223 72.1117C108.243 72.1185 108.264 72.1214 108.285 72.1201C108.306 72.1188 108.326 72.1133 108.345 72.104C108.364 72.0947 108.381 72.0817 108.395 72.0658L112.011 67.9705C112.025 67.9547 112.035 67.9363 112.042 67.9163C112.049 67.8964 112.052 67.8752 112.051 67.8542C112.049 67.8331 112.044 67.8125 112.035 67.7935C112.025 67.7745 112.012 67.7576 111.996 67.7437C111.964 67.7154 111.923 67.701 111.88 67.7035C111.838 67.7061 111.798 67.7253 111.77 67.7571L108.154 71.8531Z" fill="url(#paint45_linear_272_610)"/>
<path d="M95.8649 55.1806L95.7583 55.3011L160.42 112.489L160.526 112.368L95.8649 55.1806Z" fill="url(#paint46_linear_272_610)"/>
<path d="M92.3107 52.878L92.2041 52.9985L159.986 112.967L160.093 112.846L92.3107 52.878Z" fill="url(#paint47_linear_272_610)"/>
<path d="M87.8178 49.7022L87.7109 49.8225L159.475 113.538L159.582 113.417L87.8178 49.7022Z" fill="url(#paint48_linear_272_610)"/>
<path d="M87.0618 50.7308L86.9556 50.8517L158.944 114.162L159.05 114.041L87.0618 50.7308Z" fill="url(#paint49_linear_272_610)"/>
<path d="M90.8136 54.5928L90.707 54.7134L158.51 114.658L158.616 114.537L90.8136 54.5928Z" fill="url(#paint50_linear_272_610)"/>
<path d="M93.5207 57.8207L93.4141 57.9413L158.075 115.129L158.182 115.008L93.5207 57.8207Z" fill="url(#paint51_linear_272_610)"/>
<path d="M95.715 54.8545C95.6097 54.9737 95.5422 55.1215 95.5209 55.279C95.4996 55.4366 95.5256 55.597 95.5954 55.7398C95.6653 55.8827 95.776 56.0016 95.9134 56.0815C96.0509 56.1615 96.209 56.1988 96.3677 56.1889C96.5264 56.179 96.6786 56.1222 96.8051 56.0258C96.9315 55.9294 97.0265 55.7976 97.078 55.6472C97.1296 55.4967 97.1354 55.3344 97.0946 55.1807C97.0539 55.027 96.9685 54.8888 96.8492 54.7836C96.6893 54.6429 96.4801 54.5713 96.2674 54.5846C96.0548 54.5979 95.8561 54.6949 95.715 54.8545Z" fill="url(#paint52_linear_272_610)"/>
<path d="M91.6891 52.3706C91.5838 52.4898 91.5163 52.6375 91.495 52.7951C91.4737 52.9527 91.4997 53.113 91.5696 53.2559C91.6394 53.3987 91.7501 53.5176 91.8876 53.5976C92.025 53.6775 92.1831 53.7149 92.3418 53.705C92.5005 53.695 92.6527 53.6383 92.7792 53.5418C92.9056 53.4454 93.0006 53.3136 93.0522 53.1632C93.1037 53.0128 93.1095 52.8504 93.0687 52.6967C93.028 52.543 92.9426 52.4048 92.8233 52.2997C92.6635 52.1587 92.4542 52.087 92.2415 52.1003C92.0288 52.1136 91.8301 52.2108 91.6891 52.3706Z" fill="url(#paint53_linear_272_610)"/>
<path d="M87.824 50.5608C88.2671 50.5334 88.6041 50.152 88.5767 49.7088C88.5493 49.2657 88.1678 48.9287 87.7247 48.9561C87.2816 48.9835 86.9446 49.365 86.972 49.8081C86.9994 50.2512 87.3809 50.5882 87.824 50.5608Z" fill="url(#paint54_linear_272_610)"/>
<path d="M85.7706 50.5721C85.6654 50.6913 85.5978 50.839 85.5766 50.9966C85.5553 51.1542 85.5812 51.3146 85.6511 51.4574C85.721 51.6003 85.8316 51.7192 85.9691 51.7991C86.1066 51.879 86.2647 51.9164 86.4234 51.9065C86.5821 51.8966 86.7343 51.8398 86.8607 51.7434C86.9872 51.647 87.0822 51.5152 87.1337 51.3647C87.1853 51.2143 87.191 51.052 87.1503 50.8983C87.1096 50.7445 87.0241 50.6064 86.9049 50.5012C86.745 50.3603 86.5358 50.2886 86.3231 50.3019C86.1104 50.3152 85.9117 50.4124 85.7706 50.5721Z" fill="url(#paint55_linear_272_610)"/>
<path d="M90.5501 55.9718C90.9932 55.9444 91.3302 55.563 91.3028 55.1198C91.2754 54.6767 90.8939 54.3397 90.4508 54.3671C90.0077 54.3945 89.6707 54.776 89.6981 55.2191C89.7255 55.6622 90.1069 55.9992 90.5501 55.9718Z" fill="url(#paint56_linear_272_610)"/>
<path d="M93.1608 57.7462C93.0555 57.8654 92.988 58.0131 92.9667 58.1707C92.9454 58.3283 92.9714 58.4886 93.0412 58.6315C93.1111 58.7743 93.2218 58.8932 93.3592 58.9732C93.4967 59.0531 93.6548 59.0905 93.8135 59.0806C93.9722 59.0707 94.1244 59.0139 94.2509 58.9175C94.3773 58.821 94.4723 58.6893 94.5238 58.5388C94.5754 58.3884 94.5812 58.226 94.5404 58.0723C94.4997 57.9186 94.4143 57.7804 94.295 57.6753C94.1352 57.5343 93.9259 57.4626 93.7132 57.4759C93.5005 57.4892 93.3018 57.5864 93.1608 57.7462Z" fill="url(#paint57_linear_272_610)"/>
<path d="M156.543 115.895C156.43 116.023 156.373 116.19 156.384 116.36C156.394 116.531 156.472 116.69 156.6 116.803C156.728 116.915 156.895 116.973 157.065 116.962C157.235 116.952 157.394 116.874 157.507 116.747L161.978 111.687C162.09 111.559 162.148 111.392 162.137 111.222C162.127 111.051 162.049 110.892 161.922 110.779C161.794 110.667 161.626 110.609 161.456 110.62C161.286 110.63 161.127 110.708 161.014 110.835L156.543 115.895Z" fill="url(#paint58_linear_272_610)"/>
<path d="M156.486 127.856C156.381 127.975 156.313 128.123 156.292 128.28C156.271 128.438 156.297 128.598 156.366 128.741C156.436 128.884 156.547 129.003 156.684 129.083C156.822 129.163 156.98 129.2 157.139 129.19C157.297 129.18 157.45 129.124 157.576 129.027C157.703 128.931 157.798 128.799 157.849 128.649C157.901 128.498 157.906 128.336 157.866 128.182C157.825 128.028 157.739 127.89 157.62 127.785C157.541 127.715 157.449 127.661 157.349 127.627C157.249 127.593 157.144 127.578 157.038 127.585C156.933 127.592 156.83 127.619 156.735 127.665C156.64 127.712 156.556 127.777 156.486 127.856Z" fill="url(#paint59_linear_272_610)"/>
<path d="M170.962 111.473C170.856 111.592 170.789 111.74 170.767 111.898C170.746 112.055 170.772 112.216 170.842 112.359C170.912 112.501 171.023 112.62 171.16 112.7C171.297 112.78 171.456 112.818 171.614 112.808C171.773 112.798 171.925 112.741 172.052 112.645C172.178 112.548 172.273 112.416 172.325 112.266C172.376 112.115 172.382 111.953 172.341 111.799C172.3 111.646 172.215 111.507 172.096 111.402C171.936 111.261 171.727 111.19 171.514 111.203C171.301 111.216 171.103 111.313 170.962 111.473Z" fill="url(#paint60_linear_272_610)"/>
<path d="M149.983 118.464C149.878 118.584 149.81 118.731 149.789 118.889C149.768 119.047 149.794 119.207 149.863 119.35C149.933 119.493 150.044 119.612 150.182 119.691C150.319 119.771 150.477 119.809 150.636 119.799C150.794 119.789 150.947 119.732 151.073 119.636C151.2 119.539 151.295 119.408 151.346 119.257C151.398 119.107 151.403 118.944 151.363 118.791C151.322 118.637 151.237 118.499 151.117 118.394C150.957 118.253 150.748 118.181 150.535 118.194C150.323 118.207 150.124 118.305 149.983 118.464Z" fill="url(#paint61_linear_272_610)"/>
<path d="M160.521 106.539C160.415 106.658 160.348 106.806 160.327 106.963C160.305 107.121 160.331 107.281 160.401 107.424C160.471 107.567 160.582 107.686 160.719 107.766C160.857 107.846 161.015 107.883 161.173 107.873C161.332 107.863 161.484 107.806 161.611 107.71C161.737 107.613 161.832 107.482 161.884 107.331C161.935 107.181 161.941 107.018 161.9 106.865C161.86 106.711 161.774 106.573 161.655 106.468C161.576 106.398 161.484 106.344 161.384 106.31C161.284 106.275 161.178 106.261 161.073 106.268C160.968 106.274 160.865 106.302 160.77 106.348C160.675 106.395 160.59 106.459 160.521 106.539Z" fill="url(#paint62_linear_272_610)"/>
<path d="M150.435 100.755C150.343 100.861 150.283 100.991 150.265 101.13C150.246 101.268 150.269 101.41 150.33 101.536C150.392 101.661 150.489 101.766 150.611 101.837C150.732 101.907 150.871 101.94 151.011 101.932C151.151 101.923 151.285 101.873 151.396 101.788C151.508 101.704 151.592 101.588 151.637 101.455C151.683 101.323 151.688 101.18 151.653 101.044C151.617 100.909 151.542 100.787 151.438 100.694C151.368 100.632 151.287 100.584 151.198 100.554C151.11 100.523 151.017 100.511 150.924 100.516C150.831 100.522 150.739 100.546 150.656 100.587C150.572 100.628 150.497 100.685 150.435 100.755Z" fill="url(#paint63_linear_272_610)"/>
<path d="M144.05 107.983C143.957 108.088 143.898 108.219 143.879 108.358C143.86 108.496 143.883 108.638 143.945 108.764C144.006 108.89 144.104 108.994 144.225 109.065C144.346 109.135 144.485 109.168 144.625 109.16C144.765 109.151 144.899 109.101 145.011 109.017C145.122 108.932 145.206 108.816 145.252 108.683C145.297 108.551 145.303 108.408 145.267 108.272C145.231 108.137 145.156 108.015 145.052 107.922C144.982 107.86 144.9 107.812 144.812 107.782C144.724 107.752 144.631 107.739 144.538 107.745C144.445 107.75 144.354 107.774 144.27 107.815C144.186 107.856 144.112 107.913 144.05 107.983Z" fill="url(#paint64_linear_272_610)"/>
<g style="mix-blend-mode:soft-light">
<path d="M165.793 150.646C165.986 150.726 166.203 150.728 166.397 150.651L166.848 150.472C167.016 150.407 167.156 150.287 167.247 150.132C167.338 149.976 167.375 149.795 167.351 149.617L166.252 141.483C166.249 141.462 166.242 141.441 166.232 141.423C166.221 141.405 166.207 141.388 166.19 141.375C166.174 141.362 166.154 141.353 166.134 141.347C166.113 141.342 166.092 141.34 166.071 141.343C166.05 141.346 166.029 141.353 166.011 141.364C165.993 141.374 165.977 141.389 165.964 141.406C165.951 141.423 165.942 141.442 165.936 141.462C165.931 141.483 165.93 141.504 165.933 141.525L167.032 149.659C167.046 149.766 167.024 149.875 166.97 149.968C166.915 150.062 166.831 150.134 166.73 150.173L166.279 150.352C166.173 150.394 166.055 150.397 165.947 150.36C165.839 150.324 165.747 150.249 165.688 150.151L157.078 135.866C157.056 135.83 157.02 135.805 156.979 135.795C156.938 135.785 156.894 135.791 156.858 135.813C156.822 135.835 156.796 135.87 156.785 135.911C156.775 135.952 156.781 135.996 156.802 136.032L165.413 150.316C165.501 150.464 165.634 150.58 165.793 150.646Z" fill="white"/>
</g>
<g style="mix-blend-mode:soft-light">
<path d="M155.128 133.198C155.159 133.211 155.194 133.214 155.227 133.206C155.26 133.199 155.29 133.18 155.312 133.155C155.335 133.129 155.348 133.097 155.351 133.063C155.354 133.029 155.346 132.995 155.328 132.966L151.764 127.055C151.742 127.02 151.707 126.994 151.665 126.984C151.624 126.974 151.581 126.981 151.545 127.002C151.509 127.024 151.482 127.059 151.472 127.1C151.461 127.141 151.467 127.185 151.489 127.221L155.052 133.133C155.07 133.162 155.097 133.185 155.128 133.198Z" fill="white"/>
</g>
<g style="mix-blend-mode:soft-light">
<path d="M175.517 119.992C175.534 119.999 175.553 120.003 175.572 120.004L193.157 120.741C193.198 120.74 193.238 120.724 193.268 120.695C193.297 120.667 193.315 120.628 193.316 120.586C193.318 120.545 193.304 120.505 193.277 120.474C193.25 120.443 193.212 120.423 193.171 120.42L175.585 119.683C175.547 119.681 175.51 119.692 175.48 119.715C175.449 119.738 175.428 119.771 175.42 119.808C175.411 119.845 175.416 119.883 175.433 119.917C175.451 119.951 175.479 119.977 175.514 119.992H175.517Z" fill="white"/>
</g>
<path d="M179.673 96.7354L181.87 100.515L153.413 103.052C153.413 103.052 148.947 104.116 148.729 106.84C148.729 106.84 148.464 107.691 149.296 106.266C149.461 107.484 149.064 109.796 149.792 108.677C150.52 107.557 150.268 107.123 150.268 107.123C150.268 107.123 150.589 111.301 150.977 110.233C151.364 109.166 151.402 107.743 151.402 107.743C151.402 107.743 151.776 111.394 152.076 110.618C152.376 109.841 151.817 107.976 152.947 107.743C154.077 107.51 156.154 108.005 156.395 106.84C156.635 105.675 186.159 107.565 189.495 105.397C192.831 103.228 188.116 93.12 188.116 93.12L179.673 96.7354Z" fill="url(#paint65_linear_272_610)"/>
<path d="M144.947 36.1752C144.947 36.1752 152.842 33.1978 151.174 30.1262C149.506 27.0545 144.836 21.8527 141.277 32.1274C143.168 36.9535 144.947 36.1752 144.947 36.1752Z" fill="url(#paint66_linear_272_610)"/>
<path d="M150.368 28.5021C150.368 28.5021 147.783 24.947 146.99 25.8083C146.197 26.6696 143.988 29.4945 145.197 30.2297C146.407 30.9648 147.675 32.3329 150.368 28.5021Z" fill="url(#paint67_linear_272_610)"/>
<path d="M145.836 35.805C146.026 36.1779 150.404 34.1639 150.657 33.253C150.91 32.3421 149.864 28.1242 148.697 28.8331C147.529 29.5419 148.738 30.8456 148.613 31.1724C148.488 31.4992 144.181 32.5576 145.836 35.805Z" fill="url(#paint68_linear_272_610)"/>
<path d="M178.309 26.3003C178.202 26.3487 178.086 26.3752 177.969 26.3783C177.851 26.3813 177.734 26.3609 177.624 26.3182C177.515 26.2755 177.415 26.2113 177.33 26.1295C177.246 26.0477 177.179 25.9498 177.132 25.8416L171.396 13.2942C171.346 13.1888 171.317 13.0746 171.312 12.9582C171.307 12.8417 171.324 12.7253 171.364 12.6158C171.404 12.5063 171.465 12.4057 171.544 12.3201C171.624 12.2345 171.719 12.1654 171.825 12.1169C171.931 12.0684 172.046 12.0415 172.162 12.0377C172.279 12.0339 172.395 12.0533 172.504 12.0948C172.613 12.1362 172.712 12.1989 172.797 12.2793C172.881 12.3596 172.949 12.4559 172.996 12.5626L178.941 25.5687C179.148 26.021 178.765 26.0925 178.309 26.3003Z" fill="url(#paint69_linear_272_610)"/>
<path d="M179.14 25.5183C179.698 26.7397 178.972 28.2681 177.517 28.933C176.062 29.598 174.43 29.1457 173.872 27.9257C173.315 26.7057 174.041 25.1766 175.496 24.5116C176.95 23.8467 178.582 24.2976 179.14 25.5183Z" fill="url(#paint70_linear_272_610)"/>
<path d="M189.155 19.3496C189.048 19.398 188.932 19.4245 188.815 19.4276C188.697 19.4307 188.58 19.4102 188.471 19.3675C188.361 19.3248 188.261 19.2607 188.177 19.1788C188.092 19.097 188.025 18.9991 187.979 18.8909L182.242 6.34348C182.192 6.23815 182.164 6.12394 182.158 6.00749C182.153 5.89103 182.17 5.77465 182.21 5.66511C182.25 5.55557 182.312 5.45506 182.391 5.36941C182.47 5.28377 182.565 5.2147 182.671 5.16622C182.777 5.11774 182.892 5.09082 183.008 5.08702C183.125 5.08322 183.241 5.10261 183.35 5.14408C183.459 5.18555 183.558 5.24826 183.643 5.32857C183.727 5.40888 183.795 5.50519 183.842 5.6119L189.787 18.6152C189.995 19.0703 189.61 19.1419 189.155 19.3496Z" fill="url(#paint71_linear_272_610)"/>
<path d="M189.746 18.6775C190.304 19.8982 189.577 21.4273 188.123 22.0922C186.668 22.7572 185.037 22.3049 184.478 21.0849C183.92 19.8649 184.647 18.3351 186.102 17.6709C187.556 17.0066 189.188 17.4568 189.746 18.6775Z" fill="url(#paint72_linear_272_610)"/>
<path d="M173.92 16.6968L185.098 8.35735L183.624 5.13188C183.562 5.01168 183.476 4.90618 183.37 4.82261C183.264 4.73903 183.141 4.67937 183.01 4.64771C182.891 4.60954 182.764 4.59979 182.64 4.61924C182.516 4.63869 182.399 4.68679 182.297 4.75971L171.819 12.101L173.92 16.6968Z" fill="url(#paint73_linear_272_610)"/>
<path d="M1.66888 109.44C1.91557 109.007 2.2289 108.377 2.60675 108.565C8.70962 111.546 24.1458 121.226 28.1 144.251C33.0623 173.139 42.3488 181.696 51.9281 185.877C50.2629 186.457 47.0594 187.385 43.1222 187.175C12.6199 185.553 -3.60247 118.711 1.66888 109.44Z" fill="#91B3FA"/>
<path d="M5.0228 119.182C6.69154 122.069 8.29861 124.985 9.79083 127.952C11.2994 130.912 12.7101 133.911 14.0229 136.949C15.3216 139.991 16.5601 143.055 17.6581 146.165C18.7711 149.269 19.7409 152.414 20.7064 155.575C21.6868 158.729 22.6559 161.911 23.973 165.011C25.2901 168.111 27.0099 171.103 29.2642 173.718C29.827 174.369 30.4041 175.013 31.0166 175.619C31.6163 176.236 32.2458 176.824 32.8866 177.408C34.1795 178.573 35.5517 179.646 36.9933 180.621C39.8997 182.57 43.1124 184.102 46.4513 185.209C46.6167 185.267 46.7981 185.259 46.9577 185.187C47.1174 185.114 47.2432 184.984 47.3091 184.821C47.3367 184.743 47.3484 184.659 47.3434 184.576C47.3384 184.493 47.3169 184.412 47.28 184.337C47.2432 184.262 47.1918 184.195 47.1289 184.141C47.0659 184.086 46.9927 184.045 46.9135 184.019C46.1096 183.728 45.31 183.429 44.5274 183.097C44.1332 182.937 43.7476 182.761 43.3577 182.592C42.9756 182.409 42.5864 182.237 42.2107 182.047C40.7 181.3 39.2432 180.449 37.851 179.499C35.0743 177.62 32.5804 175.342 30.4225 172.848C29.3615 171.596 28.3981 170.264 27.5408 168.864C26.6923 167.465 25.9414 166.008 25.2937 164.506C23.99 161.507 23.0068 158.364 21.9987 155.219C20.9907 152.074 19.9528 148.917 18.7796 145.806C18.1969 144.249 17.5854 142.702 16.945 141.166C16.6288 140.397 16.2978 139.633 15.9674 138.868C15.6371 138.104 15.2883 137.348 14.9395 136.591C13.5388 133.567 12.0409 130.586 10.4458 127.65C8.83524 124.722 7.14311 121.837 5.33613 119.016C5.30965 118.977 5.26942 118.949 5.22344 118.938C5.17746 118.928 5.12911 118.934 5.08802 118.958C5.06889 118.968 5.052 118.982 5.03835 118.999C5.02469 119.016 5.01454 119.036 5.00847 119.056C5.0024 119.077 5.00055 119.099 5.00301 119.121C5.00547 119.143 5.0122 119.163 5.0228 119.182Z" fill="#BDD0FB"/>
<path d="M96.7097 6.2215C96.2262 6.8595 99.0384 29.3747 99.0384 29.3747L108.416 23.4732L113.996 41.5188L114.073 13.5642L103.236 17.9204L102.789 0.533325L96.7097 6.2215Z" fill="url(#paint74_linear_272_610)"/>
<path d="M30.4443 9.96655C30.311 10.8527 45.0907 31.473 45.0907 31.473L51.1539 20.6709L66.269 35.423L51.424 7.91075L43.1009 17.9771L33.3826 1.13159L30.4443 9.96655Z" fill="url(#paint75_linear_272_610)"/>
<path d="M34.1796 92.8854C34.7545 91.727 69.2897 79.578 69.2897 79.578L67.5175 97.3713L97.5931 92.4359L57.2818 112.675L55.7697 93.8892L30.3438 105.76L34.1796 92.8854Z" fill="url(#paint76_linear_272_610)"/>
<defs>
<linearGradient id="paint0_linear_272_610" x1="167.241" y1="-29.5245" x2="228.545" y2="-112.787" gradientUnits="userSpaceOnUse">
<stop stop-color="#09005D"/>
<stop offset="1" stop-color="#1A0F91"/>
</linearGradient>
<linearGradient id="paint1_linear_272_610" x1="110.333" y1="42.3432" x2="-49.7529" y2="288.418" gradientUnits="userSpaceOnUse">
<stop stop-color="#4F52FF"/>
<stop offset="1" stop-color="#4042E2"/>
</linearGradient>
<linearGradient id="paint2_linear_272_610" x1="33.2319" y1="19.0632" x2="32.3969" y2="26.5448" gradientUnits="userSpaceOnUse">
<stop stop-color="#09005D"/>
<stop offset="1" stop-color="#1A0F91"/>
</linearGradient>
<linearGradient id="paint3_linear_272_610" x1="127.547" y1="19.3254" x2="126.707" y2="26.8511" gradientUnits="userSpaceOnUse">
<stop stop-color="#09005D"/>
<stop offset="1" stop-color="#1A0F91"/>
</linearGradient>
<linearGradient id="paint4_linear_272_610" x1="37.2114" y1="167.004" x2="36.55" y2="172.928" gradientUnits="userSpaceOnUse">
<stop stop-color="#09005D"/>
<stop offset="1" stop-color="#1A0F91"/>
</linearGradient>
<linearGradient id="paint5_linear_272_610" x1="121.074" y1="167.007" x2="120.409" y2="172.969" gradientUnits="userSpaceOnUse">
<stop stop-color="#09005D"/>
<stop offset="1" stop-color="#1A0F91"/>
</linearGradient>
<linearGradient id="paint6_linear_272_610" x1="81.679" y1="42.6176" x2="77.0896" y2="83.7448" gradientUnits="userSpaceOnUse">
<stop stop-color="#09005D"/>
<stop offset="1" stop-color="#1A0F91"/>
</linearGradient>
<linearGradient id="paint7_linear_272_610" x1="80.4484" y1="54.0542" x2="78.8371" y2="68.4965" gradientUnits="userSpaceOnUse">
<stop stop-color="#09005D"/>
<stop offset="1" stop-color="#1A0F91"/>
</linearGradient>
<linearGradient id="paint8_linear_272_610" x1="81.6951" y1="107.091" x2="75.695" y2="160.861" gradientUnits="userSpaceOnUse">
<stop stop-color="#09005D"/>
<stop offset="1" stop-color="#1A0F91"/>
</linearGradient>
<linearGradient id="paint9_linear_272_610" x1="80.0896" y1="122.221" x2="77.9835" y2="141.1" gradientUnits="userSpaceOnUse">
<stop stop-color="#09005D"/>
<stop offset="1" stop-color="#1A0F91"/>
</linearGradient>
<linearGradient id="paint10_linear_272_610" x1="137.061" y1="38.0878" x2="128.165" y2="50.5424" gradientUnits="userSpaceOnUse">
<stop stop-color="#FEBBBA"/>
<stop offset="1" stop-color="#FF928E"/>
</linearGradient>
<linearGradient id="paint11_linear_272_610" x1="137.856" y1="37.9683" x2="125.378" y2="46.8327" gradientUnits="userSpaceOnUse">
<stop stop-color="#FEBBBA"/>
<stop offset="1" stop-color="#FF928E"/>
</linearGradient>
<linearGradient id="paint12_linear_272_610" x1="132.943" y1="48.4496" x2="113.235" y2="246.104" gradientUnits="userSpaceOnUse">
<stop stop-color="#FEBBBA"/>
<stop offset="1" stop-color="#FF928E"/>
</linearGradient>
<linearGradient id="paint13_linear_272_610" x1="133.294" y1="60.2541" x2="153.689" y2="86.4024" gradientUnits="userSpaceOnUse">
<stop stop-color="#09005D"/>
<stop offset="1" stop-color="#1A0F91"/>
</linearGradient>
<linearGradient id="paint14_linear_272_610" x1="-3465.65" y1="1228.95" x2="-3433.18" y2="1220.39" gradientUnits="userSpaceOnUse">
<stop stop-color="#09005D"/>
<stop offset="1" stop-color="#1A0F91"/>
</linearGradient>
<linearGradient id="paint15_linear_272_610" x1="178.1" y1="162.035" x2="180.28" y2="167.513" gradientUnits="userSpaceOnUse">
<stop stop-color="#FEBBBA"/>
<stop offset="1" stop-color="#FF928E"/>
</linearGradient>
<linearGradient id="paint16_linear_272_610" x1="144.631" y1="84.8682" x2="136.857" y2="98.4729" gradientUnits="userSpaceOnUse">
<stop stop-color="#09005D"/>
<stop offset="1" stop-color="#1A0F91"/>
</linearGradient>
<linearGradient id="paint17_linear_272_610" x1="96.6513" y1="189.825" x2="91.2906" y2="187.35" gradientUnits="userSpaceOnUse">
<stop stop-color="#FEBBBA"/>
<stop offset="1" stop-color="#FF928E"/>
</linearGradient>
<linearGradient id="paint18_linear_272_610" x1="693.648" y1="-254.493" x2="587.046" y2="-180.104" gradientUnits="userSpaceOnUse">
<stop stop-color="#09005D"/>
<stop offset="1" stop-color="#1A0F91"/>
</linearGradient>
<linearGradient id="paint19_linear_272_610" x1="702.834" y1="-241.329" x2="596.233" y2="-166.94" gradientUnits="userSpaceOnUse">
<stop stop-color="#09005D"/>
<stop offset="1" stop-color="#1A0F91"/>
</linearGradient>
<linearGradient id="paint20_linear_272_610" x1="146.795" y1="80.3733" x2="187.114" y2="132.064" gradientUnits="userSpaceOnUse">
<stop stop-color="#09005D"/>
<stop offset="1" stop-color="#1A0F91"/>
</linearGradient>
<linearGradient id="paint21_linear_272_610" x1="168.691" y1="77.2854" x2="162.403" y2="59.3688" gradientUnits="userSpaceOnUse">
<stop stop-color="#FEBBBA"/>
<stop offset="1" stop-color="#FF928E"/>
</linearGradient>
<linearGradient id="paint22_linear_272_610" x1="159.71" y1="45.1585" x2="161.987" y2="78.8103" gradientUnits="userSpaceOnUse">
<stop stop-color="#FEBBBA"/>
<stop offset="1" stop-color="#FF928E"/>
</linearGradient>
<linearGradient id="paint23_linear_272_610" x1="397.592" y1="453.583" x2="384.321" y2="430.29" gradientUnits="userSpaceOnUse">
<stop stop-color="#09005D"/>
<stop offset="1" stop-color="#1A0F91"/>
</linearGradient>
<linearGradient id="paint24_linear_272_610" x1="175.763" y1="46.9333" x2="164.61" y2="57.2562" gradientUnits="userSpaceOnUse">
<stop stop-color="#FEBBBA"/>
<stop offset="1" stop-color="#FF928E"/>
</linearGradient>
<linearGradient id="paint25_linear_272_610" x1="173.052" y1="75.7039" x2="240.447" y2="-27.2879" gradientUnits="userSpaceOnUse">
<stop stop-color="#FF928E"/>
<stop offset="1" stop-color="#FE7062"/>
</linearGradient>
<linearGradient id="paint26_linear_272_610" x1="162.266" y1="73.9358" x2="112.906" y2="103.599" gradientUnits="userSpaceOnUse">
<stop stop-color="#FF928E"/>
<stop offset="1" stop-color="#FE7062"/>
</linearGradient>
<linearGradient id="paint27_linear_272_610" x1="627.941" y1="-487.75" x2="638.642" y2="-498.668" gradientUnits="userSpaceOnUse">
<stop stop-color="#FF928E"/>
<stop offset="1" stop-color="#FE7062"/>
</linearGradient>
<linearGradient id="paint28_linear_272_610" x1="627.807" y1="-487.874" x2="638.508" y2="-498.791" gradientUnits="userSpaceOnUse">
<stop stop-color="#FF928E"/>
<stop offset="1" stop-color="#FE7062"/>
</linearGradient>
<linearGradient id="paint29_linear_272_610" x1="624.754" y1="-490.876" x2="635.455" y2="-501.793" gradientUnits="userSpaceOnUse">
<stop stop-color="#FF928E"/>
<stop offset="1" stop-color="#FE7062"/>
</linearGradient>
<linearGradient id="paint30_linear_272_610" x1="623.228" y1="-491.062" x2="633.897" y2="-501.99" gradientUnits="userSpaceOnUse">
<stop stop-color="#FF928E"/>
<stop offset="1" stop-color="#FE7062"/>
</linearGradient>
<linearGradient id="paint31_linear_272_610" x1="621.11" y1="-494.447" x2="631.811" y2="-505.365" gradientUnits="userSpaceOnUse">
<stop stop-color="#FF928E"/>
<stop offset="1" stop-color="#FE7062"/>
</linearGradient>
<linearGradient id="paint32_linear_272_610" x1="620.977" y1="-494.571" x2="631.678" y2="-505.488" gradientUnits="userSpaceOnUse">
<stop stop-color="#FF928E"/>
<stop offset="1" stop-color="#FE7062"/>
</linearGradient>
<linearGradient id="paint33_linear_272_610" x1="-639.752" y1="979.693" x2="-649.266" y2="991.657" gradientUnits="userSpaceOnUse">
<stop stop-color="#FF928E"/>
<stop offset="1" stop-color="#FE7062"/>
</linearGradient>
<linearGradient id="paint34_linear_272_610" x1="-639.898" y1="979.588" x2="-649.413" y2="991.553" gradientUnits="userSpaceOnUse">
<stop stop-color="#FF928E"/>
<stop offset="1" stop-color="#FE7062"/>
</linearGradient>
<linearGradient id="paint35_linear_272_610" x1="-643.246" y1="976.918" x2="-652.762" y2="988.883" gradientUnits="userSpaceOnUse">
<stop stop-color="#FF928E"/>
<stop offset="1" stop-color="#FE7062"/>
</linearGradient>
<linearGradient id="paint36_linear_272_610" x1="-643.379" y1="976.803" x2="-652.894" y2="988.768" gradientUnits="userSpaceOnUse">
<stop stop-color="#FF928E"/>
<stop offset="1" stop-color="#FE7062"/>
</linearGradient>
<linearGradient id="paint37_linear_272_610" x1="-647.239" y1="973.739" x2="-656.754" y2="985.704" gradientUnits="userSpaceOnUse">
<stop stop-color="#FF928E"/>
<stop offset="1" stop-color="#FE7062"/>
</linearGradient>
<linearGradient id="paint38_linear_272_610" x1="-647.382" y1="973.636" x2="-656.897" y2="985.601" gradientUnits="userSpaceOnUse">
<stop stop-color="#FF928E"/>
<stop offset="1" stop-color="#FE7062"/>
</linearGradient>
<linearGradient id="paint39_linear_272_610" x1="154.303" y1="82.2023" x2="211.965" y2="218.528" gradientUnits="userSpaceOnUse">
<stop stop-color="#FF928E"/>
<stop offset="1" stop-color="#FE7062"/>
</linearGradient>
<linearGradient id="paint40_linear_272_610" x1="146.514" y1="93.9883" x2="168.346" y2="124.838" gradientUnits="userSpaceOnUse">
<stop stop-color="#E1473D"/>
<stop offset="1" stop-color="#E9605A"/>
</linearGradient>
<linearGradient id="paint41_linear_272_610" x1="137.783" y1="93.0519" x2="25.2998" y2="3.82473" gradientUnits="userSpaceOnUse">
<stop stop-color="#E1473D"/>
<stop offset="1" stop-color="#E9605A"/>
</linearGradient>
<linearGradient id="paint42_linear_272_610" x1="90.9047" y1="52.1508" x2="109.098" y2="82.6843" gradientUnits="userSpaceOnUse">
<stop stop-color="#E1473D"/>
<stop offset="1" stop-color="#E9605A"/>
</linearGradient>
<linearGradient id="paint43_linear_272_610" x1="135.688" y1="80.3223" x2="105.655" y2="114.451" gradientUnits="userSpaceOnUse">
<stop stop-color="#E1473D"/>
<stop offset="1" stop-color="#E9605A"/>
</linearGradient>
<linearGradient id="paint44_linear_272_610" x1="126.043" y1="71.8342" x2="96.0096" y2="105.963" gradientUnits="userSpaceOnUse">
<stop stop-color="#E1473D"/>
<stop offset="1" stop-color="#E9605A"/>
</linearGradient>
<linearGradient id="paint45_linear_272_610" x1="116.399" y1="63.346" x2="86.365" y2="97.475" gradientUnits="userSpaceOnUse">
<stop stop-color="#E1473D"/>
<stop offset="1" stop-color="#E9605A"/>
</linearGradient>
<linearGradient id="paint46_linear_272_610" x1="178.426" y1="-9.5473" x2="146.035" y2="50.6072" gradientUnits="userSpaceOnUse">
<stop stop-color="#FEBBBA"/>
<stop offset="1" stop-color="#FF928E"/>
</linearGradient>
<linearGradient id="paint47_linear_272_610" x1="176.497" y1="-10.5829" x2="144.106" y2="49.5717" gradientUnits="userSpaceOnUse">
<stop stop-color="#FEBBBA"/>
<stop offset="1" stop-color="#FF928E"/>
</linearGradient>
<linearGradient id="paint48_linear_272_610" x1="174.013" y1="-11.919" x2="141.622" y2="48.2355" gradientUnits="userSpaceOnUse">
<stop stop-color="#FEBBBA"/>
<stop offset="1" stop-color="#FF928E"/>
</linearGradient>
<linearGradient id="paint49_linear_272_610" x1="173.863" y1="-12.0045" x2="141.472" y2="48.15" gradientUnits="userSpaceOnUse">
<stop stop-color="#FEBBBA"/>
<stop offset="1" stop-color="#FF928E"/>
</linearGradient>
<linearGradient id="paint50_linear_272_610" x1="176.059" y1="-10.8237" x2="143.668" y2="49.3308" gradientUnits="userSpaceOnUse">
<stop stop-color="#FEBBBA"/>
<stop offset="1" stop-color="#FF928E"/>
</linearGradient>
<linearGradient id="paint51_linear_272_610" x1="177.708" y1="-9.92983" x2="145.317" y2="50.2247" gradientUnits="userSpaceOnUse">
<stop stop-color="#FEBBBA"/>
<stop offset="1" stop-color="#FF928E"/>
</linearGradient>
<linearGradient id="paint52_linear_272_610" x1="208.035" y1="-176.745" x2="200.721" y2="-161.496" gradientUnits="userSpaceOnUse">
<stop stop-color="#FF928E"/>
<stop offset="1" stop-color="#FE7062"/>
</linearGradient>
<linearGradient id="paint53_linear_272_610" x1="203.797" y1="-178.778" x2="196.483" y2="-163.529" gradientUnits="userSpaceOnUse">
<stop stop-color="#FF928E"/>
<stop offset="1" stop-color="#FE7062"/>
</linearGradient>
<linearGradient id="paint54_linear_272_610" x1="198.833" y1="-182.625" x2="191.452" y2="-167.313" gradientUnits="userSpaceOnUse">
<stop stop-color="#FF928E"/>
<stop offset="1" stop-color="#FE7062"/>
</linearGradient>
<linearGradient id="paint55_linear_272_610" x1="198.291" y1="-181.42" x2="190.977" y2="-166.17" gradientUnits="userSpaceOnUse">
<stop stop-color="#FF928E"/>
<stop offset="1" stop-color="#FE7062"/>
</linearGradient>
<linearGradient id="paint56_linear_272_610" x1="203.181" y1="-180.531" x2="195.8" y2="-165.219" gradientUnits="userSpaceOnUse">
<stop stop-color="#FF928E"/>
<stop offset="1" stop-color="#FE7062"/>
</linearGradient>
<linearGradient id="paint57_linear_272_610" x1="207.093" y1="-177.197" x2="199.779" y2="-161.948" gradientUnits="userSpaceOnUse">
<stop stop-color="#FF928E"/>
<stop offset="1" stop-color="#FE7062"/>
</linearGradient>
<linearGradient id="paint58_linear_272_610" x1="281.956" y1="-141.292" x2="274.642" y2="-126.042" gradientUnits="userSpaceOnUse">
<stop stop-color="#FF928E"/>
<stop offset="1" stop-color="#FE7062"/>
</linearGradient>
<linearGradient id="paint59_linear_272_610" x1="157.35" y1="147.916" x2="157.35" y2="131.871" gradientUnits="userSpaceOnUse">
<stop stop-color="#FF928E"/>
<stop offset="1" stop-color="#FE7062"/>
</linearGradient>
<linearGradient id="paint60_linear_272_610" x1="171.78" y1="131.519" x2="171.78" y2="115.475" gradientUnits="userSpaceOnUse">
<stop stop-color="#FF928E"/>
<stop offset="1" stop-color="#FE7062"/>
</linearGradient>
<linearGradient id="paint61_linear_272_610" x1="150.836" y1="138.545" x2="150.835" y2="122.5" gradientUnits="userSpaceOnUse">
<stop stop-color="#FF928E"/>
<stop offset="1" stop-color="#FE7062"/>
</linearGradient>
<linearGradient id="paint62_linear_272_610" x1="161.339" y1="126.61" x2="161.339" y2="110.565" gradientUnits="userSpaceOnUse">
<stop stop-color="#FF928E"/>
<stop offset="1" stop-color="#FE7062"/>
</linearGradient>
<linearGradient id="paint63_linear_272_610" x1="151.182" y1="118.541" x2="151.182" y2="104.368" gradientUnits="userSpaceOnUse">
<stop stop-color="#FF928E"/>
<stop offset="1" stop-color="#FE7062"/>
</linearGradient>
<linearGradient id="paint64_linear_272_610" x1="144.816" y1="125.775" x2="144.816" y2="111.602" gradientUnits="userSpaceOnUse">
<stop stop-color="#FF928E"/>
<stop offset="1" stop-color="#FE7062"/>
</linearGradient>
<linearGradient id="paint65_linear_272_610" x1="166.918" y1="98.6579" x2="185.328" y2="122.261" gradientUnits="userSpaceOnUse">
<stop stop-color="#FEBBBA"/>
<stop offset="1" stop-color="#FF928E"/>
</linearGradient>
<linearGradient id="paint66_linear_272_610" x1="139.961" y1="40.1592" x2="131.065" y2="52.6138" gradientUnits="userSpaceOnUse">
<stop stop-color="#FEBBBA"/>
<stop offset="1" stop-color="#FF928E"/>
</linearGradient>
<linearGradient id="paint67_linear_272_610" x1="138.283" y1="38.5556" x2="149.626" y2="26.2123" gradientUnits="userSpaceOnUse">
<stop stop-color="#FEBBBA"/>
<stop offset="1" stop-color="#FF928E"/>
</linearGradient>
<linearGradient id="paint68_linear_272_610" x1="143.968" y1="37.0647" x2="147.611" y2="33.2367" gradientUnits="userSpaceOnUse">
<stop stop-color="#FEBBBA"/>
<stop offset="1" stop-color="#FF928E"/>
</linearGradient>
<linearGradient id="paint69_linear_272_610" x1="119.218" y1="-75.7301" x2="88.8186" y2="-126.656" gradientUnits="userSpaceOnUse">
<stop stop-color="#E1473D"/>
<stop offset="1" stop-color="#E9605A"/>
</linearGradient>
<linearGradient id="paint70_linear_272_610" x1="116.989" y1="-74.3986" x2="86.5897" y2="-125.325" gradientUnits="userSpaceOnUse">
<stop stop-color="#E1473D"/>
<stop offset="1" stop-color="#E9605A"/>
</linearGradient>
<linearGradient id="paint71_linear_272_610" x1="130.297" y1="-82.3435" x2="99.8974" y2="-133.27" gradientUnits="userSpaceOnUse">
<stop stop-color="#E1473D"/>
<stop offset="1" stop-color="#E9605A"/>
</linearGradient>
<linearGradient id="paint72_linear_272_610" x1="127.842" y1="-80.8779" x2="97.4426" y2="-131.804" gradientUnits="userSpaceOnUse">
<stop stop-color="#E1473D"/>
<stop offset="1" stop-color="#E9605A"/>
</linearGradient>
<linearGradient id="paint73_linear_272_610" x1="125.592" y1="-79.5485" x2="95.1895" y2="-130.48" gradientUnits="userSpaceOnUse">
<stop stop-color="#E1473D"/>
<stop offset="1" stop-color="#E9605A"/>
</linearGradient>
<linearGradient id="paint74_linear_272_610" x1="108.973" y1="27.9732" x2="89.0395" y2="-25.6582" gradientUnits="userSpaceOnUse">
<stop stop-color="#FF928E"/>
<stop offset="1" stop-color="#FE7062"/>
</linearGradient>
<linearGradient id="paint75_linear_272_610" x1="60.0137" y1="30.3295" x2="10.1791" y2="-14.759" gradientUnits="userSpaceOnUse">
<stop stop-color="#E1473D"/>
<stop offset="1" stop-color="#E9605A"/>
</linearGradient>
<linearGradient id="paint76_linear_272_610" x1="94.6958" y1="76.7552" x2="22.3169" y2="116.623" gradientUnits="userSpaceOnUse">
<stop stop-color="#FF928E"/>
<stop offset="1" stop-color="#FE7062"/>
</linearGradient>
</defs>
</svg>
