<svg width="18" height="9" viewBox="0 0 18 9" fill="none" xmlns="http://www.w3.org/2000/svg">
<path d="M7.848 1.44775C8.04675 1.44775 8.208 3.02725 8.208 4.97575L8.20725 5.23825C8.193 7.0645 8.03775 8.50375 7.848 8.50375C7.656 8.50375 7.49925 7.03 7.488 5.17375V4.909C7.49175 2.99125 7.6515 1.44775 7.848 1.44775ZM6.6 2.16775C6.79425 2.16775 6.9525 3.51775 6.96 5.20825V5.46325C6.9525 7.153 6.79425 8.503 6.6 8.503C6.40875 8.503 6.252 7.18675 6.24 5.5255V5.27125L6.2415 5.01625C6.26025 3.4165 6.414 2.16775 6.6 2.16775ZM5.352 2.16775C5.54325 2.16775 5.7 3.484 5.712 5.14525V5.3995L5.7105 5.6545C5.69175 7.25425 5.538 8.50375 5.352 8.50375C5.15775 8.50375 4.9995 7.15375 4.992 5.4625V5.2075C4.9995 3.51775 5.15775 2.16775 5.352 2.16775ZM4.104 2.599C4.30275 2.599 4.464 3.92125 4.464 5.55175L4.4625 5.803C4.4475 7.31575 4.29225 8.503 4.104 8.503C3.9075 8.503 3.7485 7.216 3.744 5.61475V5.488C3.7485 3.88675 3.9075 2.59975 4.104 2.59975V2.599ZM2.856 3.89575C3.05475 3.89575 3.216 4.927 3.216 6.199V6.31825C3.20625 7.5355 3.04875 8.50375 2.856 8.50375C2.65725 8.50375 2.496 7.47175 2.496 6.19975V6.0805C2.50575 4.86325 2.66325 3.89575 2.856 3.89575ZM10.944 0.295749C12.879 0.295749 14.484 1.7095 14.7825 3.56125C15.1271 3.46237 15.4888 3.43814 15.8435 3.49019C16.1982 3.54225 16.5377 3.66938 16.8393 3.8631C17.141 4.05682 17.3978 4.31267 17.5927 4.61356C17.7876 4.91445 17.916 5.25346 17.9695 5.60795C18.0229 5.96244 18.0001 6.32425 17.9025 6.66921C17.805 7.01418 17.6349 7.33436 17.4038 7.60837C17.1726 7.88239 16.8857 8.10393 16.5621 8.2582C16.2385 8.41248 15.8857 8.49594 15.5272 8.503H9.36C9.20724 8.503 9.06073 8.44231 8.95271 8.33429C8.84469 8.22627 8.784 8.07976 8.784 7.927V0.949749C9.42303 0.52199 10.175 0.294306 10.944 0.295749ZM1.608 3.751C1.80675 3.751 1.968 4.75075 1.968 5.98375V6.1C1.9575 7.27825 1.80075 8.215 1.608 8.215C1.413 8.215 1.25325 7.2475 1.248 6.04225V5.983C1.248 4.75075 1.40925 3.751 1.608 3.751ZM0.36 4.471C0.55875 4.471 0.72 5.1805 0.72 6.05575V6.15325C0.708 6.98275 0.55125 7.639 0.36 7.639C0.16125 7.639 0 6.93025 0 6.05575V5.9575C0.012 5.128 0.16875 4.471 0.36 4.471Z" fill="#FAFAFA"/>
</svg>
