<svg width="19" height="18" viewBox="0 0 19 18" fill="none" xmlns="http://www.w3.org/2000/svg">
<path d="M13.925 8.175C11.525 6.75 7.5125 6.6 5.225 7.3125C4.85 7.425 4.475 7.2 4.3625 6.8625C4.25 6.4875 4.475 6.1125 4.8125 6C7.475 5.2125 11.8625 5.3625 14.6375 7.0125C14.975 7.2 15.0875 7.65 14.9 7.9875C14.7125 8.25 14.2625 8.3625 13.925 8.175ZM13.85 10.275C13.6625 10.5375 13.325 10.65 13.0625 10.4625C11.0375 9.225 7.9625 8.85 5.6 9.6C5.3 9.675 4.9625 9.525 4.8875 9.225C4.8125 8.925 4.9625 8.5875 5.2625 8.5125C8 7.6875 11.375 8.1 13.7 9.525C13.925 9.6375 14.0375 10.0125 13.85 10.275ZM12.95 12.3375C12.8 12.5625 12.5375 12.6375 12.3125 12.4875C10.55 11.4 8.3375 11.175 5.7125 11.775C5.45 11.85 5.225 11.6625 5.15 11.4375C5.075 11.175 5.2625 10.95 5.4875 10.875C8.3375 10.2375 10.8125 10.5 12.7625 11.7C13.025 11.8125 13.0625 12.1125 12.95 12.3375ZM9.5 1.5C8.51509 1.5 7.53982 1.69399 6.62987 2.0709C5.71993 2.44781 4.89314 3.00026 4.1967 3.6967C2.79018 5.10322 2 7.01088 2 9C2 10.9891 2.79018 12.8968 4.1967 14.3033C4.89314 14.9997 5.71993 15.5522 6.62987 15.9291C7.53982 16.306 8.51509 16.5 9.5 16.5C11.4891 16.5 13.3968 15.7098 14.8033 14.3033C16.2098 12.8968 17 10.9891 17 9C17 8.01509 16.806 7.03982 16.4291 6.12987C16.0522 5.21993 15.4997 4.39314 14.8033 3.6967C14.1069 3.00026 13.2801 2.44781 12.3701 2.0709C11.4602 1.69399 10.4849 1.5 9.5 1.5Z" fill="#FAFAFA"/>
</svg>
