<svg width="19" height="18" viewBox="0 0 19 18" fill="none" xmlns="http://www.w3.org/2000/svg">
<path d="M8 11.25L11.8925 9L8 6.75V11.25ZM16.67 5.3775C16.7675 5.73 16.835 6.2025 16.88 6.8025C16.9325 7.4025 16.955 7.92 16.955 8.37L17 9C17 10.6425 16.88 11.85 16.67 12.6225C16.4825 13.2975 16.0475 13.7325 15.3725 13.92C15.02 14.0175 14.375 14.085 13.385 14.13C12.41 14.1825 11.5175 14.205 10.6925 14.205L9.5 14.25C6.3575 14.25 4.4 14.13 3.6275 13.92C2.9525 13.7325 2.5175 13.2975 2.33 12.6225C2.2325 12.27 2.165 11.7975 2.12 11.1975C2.0675 10.5975 2.045 10.08 2.045 9.63L2 9C2 7.3575 2.12 6.15 2.33 5.3775C2.5175 4.7025 2.9525 4.2675 3.6275 4.08C3.98 3.9825 4.625 3.915 5.615 3.87C6.59 3.8175 7.4825 3.795 8.3075 3.795L9.5 3.75C12.6425 3.75 14.6 3.87 15.3725 4.08C16.0475 4.2675 16.4825 4.7025 16.67 5.3775Z" fill="#FAFAFA"/>
</svg>
